# 3ds Max Wavefront OBJ Exporter v0.97b - (c)2007 guruware
# File Created: 11.07.2014 11:20:57

mtllib aqua.mtl

#
# object Box001
#

v  -7.5000 5.0000 5.0000
v  -7.5000 5.0000 -5.0000
v  7.5000 5.0000 -5.0000
v  7.5000 5.0000 5.0000
v  -7.5000 10.0000 5.0000
v  7.5000 10.0000 5.0000
v  7.5000 10.0000 -5.0000
v  -7.5000 10.0000 -5.0000
# 8 vertices

vn 0.0000 -1.0000 -0.0000
vn 0.0000 1.0000 -0.0000
vn 0.0000 0.0000 1.0000
vn 0.0000 0.0000 -1.0000
# 4 vertex normals

vt 0.7920 0.0200 0.0000
vt 0.7920 0.1795 0.0000
vt 0.5527 0.1795 0.0000
vt 0.5527 0.0200 0.0000
vt 0.2593 0.4730 0.0000
vt 0.0200 0.4730 0.0000
vt 0.0200 0.3134 0.0000
vt 0.2593 0.3134 0.0000
vt 0.2593 0.7664 0.0000
vt 0.0200 0.7664 0.0000
vt 0.0200 0.6866 0.0000
vt 0.2593 0.6866 0.0000
vt 0.7123 0.3932 0.0000
vt 0.4730 0.3932 0.0000
vt 0.4730 0.3134 0.0000
vt 0.7123 0.3134 0.0000
# 16 texture coords

g Box001
usemtl wire_141007058
s 2
f 1/1/1 2/2/1 3/3/1 
f 3/3/1 4/4/1 1/1/1 
s 4
f 5/5/2 6/6/2 7/7/2 
f 7/7/2 8/8/2 5/5/2 
s 8
f 1/9/3 4/10/3 6/11/3 
f 6/11/3 5/12/3 1/9/3 
s 32
f 3/13/4 2/14/4 8/15/4 
f 8/15/4 7/16/4 3/13/4 
# 8 faces

#
# object Box002
#

v  7.5000 2.5000 5.0000
v  7.5000 2.5000 -5.0000
v  12.5000 2.5000 -5.0000
v  12.5000 2.5000 5.0000
v  7.5000 12.5000 5.0000
v  12.5000 12.5000 5.0000
v  12.5000 12.5000 -5.0000
v  7.5000 12.5000 -5.0000
# 8 vertices

vn 0.0000 -1.0000 -0.0000
vn 0.0000 1.0000 -0.0000
vn 0.0000 0.0000 1.0000
vn 1.0000 0.0000 -0.0000
vn 0.0000 0.0000 -1.0000
vn -1.0000 0.0000 -0.0000
# 6 vertex normals

vt 0.6325 0.6474 0.0000
vt 0.4730 0.6474 0.0000
vt 0.4730 0.5676 0.0000
vt 0.6325 0.5676 0.0000
vt 0.6866 0.5135 0.0000
vt 0.6866 0.4338 0.0000
vt 0.8461 0.4338 0.0000
vt 0.8461 0.5135 0.0000
vt 0.4730 0.5135 0.0000
vt 0.4730 0.4338 0.0000
vt 0.6325 0.4338 0.0000
vt 0.6325 0.5135 0.0000
vt 0.2999 0.3134 0.0000
vt 0.4594 0.3134 0.0000
vt 0.4594 0.4730 0.0000
vt 0.2999 0.4730 0.0000
vt 0.0200 0.8867 0.0000
vt 0.0200 0.8069 0.0000
vt 0.1795 0.8069 0.0000
vt 0.1795 0.8867 0.0000
vt 0.0200 0.5135 0.0000
vt 0.1795 0.5135 0.0000
vt 0.1795 0.6731 0.0000
vt 0.0200 0.6731 0.0000
# 24 texture coords

g Box002
usemtl wire_145028177
s 2
f 9/17/5 10/18/5 11/19/5 
f 11/19/5 12/20/5 9/17/5 
s 4
f 13/21/6 14/22/6 15/23/6 
f 15/23/6 16/24/6 13/21/6 
s 8
f 9/25/7 12/26/7 14/27/7 
f 14/27/7 13/28/7 9/25/7 
s 16
f 12/29/8 11/30/8 15/31/8 
f 15/31/8 14/32/8 12/29/8 
s 32
f 11/33/9 10/34/9 16/35/9 
f 16/35/9 15/36/9 11/33/9 
s 64
f 10/37/10 9/38/10 13/39/10 
f 13/39/10 16/40/10 10/37/10 
# 12 faces

#
# object Prism001
#

v  -7.5000 5.0000 -5.0000
v  -7.5000 5.0000 5.0000
v  -12.5000 5.0000 5.0000
v  -12.5000 5.0000 -5.0000
v  -7.5000 10.0000 5.0000
v  -7.5000 10.0000 -5.0000
# 6 vertices

vn 0.0000 -1.0000 -0.0000
vn -0.7071 0.7071 0.0000
vn 0.0000 -0.0000 1.0000
vn 0.0000 0.0000 -1.0000
# 4 vertex normals

vt 0.4730 0.7015 0.0000
vt 0.6325 0.7015 0.0000
vt 0.6325 0.7813 0.0000
vt 0.4730 0.7813 0.0000
vt 0.6866 0.5676 0.0000
vt 0.8461 0.5676 0.0000
vt 0.8461 0.6474 0.0000
vt 0.6866 0.6474 0.0000
vt 0.9002 0.6474 0.0000
vt 0.9002 0.5676 0.0000
vt 0.9800 0.6474 0.0000
vt 0.9800 0.4338 0.0000
vt 0.9002 0.5135 0.0000
vt 0.9002 0.4338 0.0000
# 14 texture coords

g Prism001
usemtl wire_184155229
s 2
f 17/41/11 18/42/11 19/43/11 
f 19/43/11 20/44/11 17/41/11 
s 8
f 20/45/12 19/46/12 21/47/12 
f 21/47/12 22/48/12 20/45/12 
s off
f 18/49/13 21/50/13 19/51/13 
f 20/52/14 22/53/14 17/54/14 
# 6 faces

#
# object Box003
#

v  1.5000 0.0000 3.5000
v  1.5000 0.0000 -3.5000
v  6.5000 0.0000 -3.5000
v  6.5000 0.0000 3.5000
v  6.5000 7.0000 3.5000
v  1.5000 7.0000 3.5000
v  6.5000 7.0000 -3.5000
v  1.5000 7.0000 -3.5000
# 8 vertices

vn 0.0000 -1.0000 -0.0000
vn 0.0000 0.0000 1.0000
vn 1.0000 0.0000 -0.0000
vn 0.0000 0.0000 -1.0000
vn -1.0000 0.0000 -0.0000
# 5 vertex normals

vt 0.9443 0.2250 0.0000
vt 0.8326 0.2250 0.0000
vt 0.8326 0.1452 0.0000
vt 0.9443 0.1452 0.0000
vt 0.4730 0.9151 0.0000
vt 0.4730 0.8353 0.0000
vt 0.5846 0.8353 0.0000
vt 0.5846 0.9151 0.0000
vt 0.8326 0.0200 0.0000
vt 0.9443 0.0200 0.0000
vt 0.9443 0.1317 0.0000
vt 0.8326 0.1317 0.0000
vt 0.6866 0.7813 0.0000
vt 0.6866 0.7015 0.0000
vt 0.7983 0.7015 0.0000
vt 0.7983 0.7813 0.0000
vt 0.2999 0.4865 0.0000
vt 0.4116 0.4865 0.0000
vt 0.4116 0.5982 0.0000
vt 0.2999 0.5982 0.0000
# 20 texture coords

g Box003
usemtl wire_145028177
s 2
f 23/55/15 24/56/15 25/57/15 
f 25/57/15 26/58/15 23/55/15 
s 8
f 23/59/16 26/60/16 27/61/16 
f 27/61/16 28/62/16 23/59/16 
s 16
f 26/63/17 25/64/17 29/65/17 
f 29/65/17 27/66/17 26/63/17 
s 32
f 25/67/18 24/68/18 30/69/18 
f 30/69/18 29/70/18 25/67/18 
s 64
f 24/71/19 23/72/19 28/73/19 
f 28/73/19 30/74/19 24/71/19 
# 10 faces

#
# object Box004
#

v  -6.5000 0.0000 2.5000
v  -6.5000 0.0000 -2.5000
v  -3.5000 0.0000 -2.5000
v  -3.5000 0.0000 2.5000
v  -3.5000 6.0000 2.5000
v  -6.5000 6.0000 2.5000
v  -3.5000 6.0000 -2.5000
v  -6.5000 6.0000 -2.5000
# 8 vertices

vn 0.0000 -1.0000 -0.0000
vn 0.0000 0.0000 1.0000
vn 1.0000 0.0000 -0.0000
vn 0.0000 0.0000 -1.0000
vn -1.0000 0.0000 -0.0000
# 5 vertex normals

vt 0.9162 0.8832 0.0000
vt 0.8364 0.8832 0.0000
vt 0.8364 0.8353 0.0000
vt 0.9162 0.8353 0.0000
vt 0.8524 0.7493 0.0000
vt 0.8524 0.7015 0.0000
vt 0.9481 0.7015 0.0000
vt 0.9481 0.7493 0.0000
vt 0.2999 0.6915 0.0000
vt 0.2999 0.6117 0.0000
vt 0.3956 0.6117 0.0000
vt 0.3956 0.6915 0.0000
vt 0.2999 0.7934 0.0000
vt 0.2999 0.7455 0.0000
vt 0.3956 0.7455 0.0000
vt 0.3956 0.7934 0.0000
vt 0.6866 0.9151 0.0000
vt 0.6866 0.8353 0.0000
vt 0.7823 0.8353 0.0000
vt 0.7823 0.9151 0.0000
# 20 texture coords

g Box004
usemtl wire_153228184
s 2
f 31/75/20 32/76/20 33/77/20 
f 33/77/20 34/78/20 31/75/20 
s 8
f 31/79/21 34/80/21 35/81/21 
f 35/81/21 36/82/21 31/79/21 
s 16
f 34/83/22 33/84/22 37/85/22 
f 37/85/22 35/86/22 34/83/22 
s 32
f 33/87/23 32/88/23 38/89/23 
f 38/89/23 37/90/23 33/87/23 
s 64
f 32/91/24 31/92/24 36/93/24 
f 36/93/24 38/94/24 32/91/24 
# 10 faces

#
# object Plane001
#

v  -5.7453 2.6791 10.0000
v  -5.7453 2.6791 40.0000
v  5.7453 12.3209 10.0000
v  5.7453 12.3209 40.0000
# 4 vertices

vn -0.6428 0.7660 -0.0000
# 1 vertex normals

vt 0.4986 0.2593 0.0000
vt 0.0200 0.2593 0.0000
vt 0.4986 0.0200 0.0000
vt 0.0200 0.0200 0.0000
# 4 texture coords

g Plane001
usemtl wire_228153184
s 1
f 39/95/25 40/96/25 41/97/25 
f 42/98/25 41/97/25 40/96/25 
# 2 faces

#
# object Plane002
#

v  -1.5321 6.2144 2.0000
v  -1.5321 6.2144 10.0000
v  1.5321 8.7856 2.0000
v  1.5321 8.7856 10.0000
# 4 vertices

vn -0.6428 0.7660 -0.0000
# 1 vertex normals

vt 0.8805 0.3772 0.0000
vt 0.7528 0.3772 0.0000
vt 0.8805 0.3134 0.0000
vt 0.7528 0.3134 0.0000
# 4 texture coords

g Plane002
usemtl wire_085028177
s 1
f 43/99/26 44/100/26 45/101/26 
f 46/102/26 45/101/26 44/100/26 
# 2 faces

