# 3ds Max Wavefront OBJ Exporter v0.97b - (c)2007 guruware
# File Created: 02.07.2014 15:59:28

mtllib coms.mtl

#
# object Box001
#

v  -5.0000 0.0000 7.5000
v  -5.0000 0.0000 -7.5000
v  5.0000 0.0000 -7.5000
v  5.0000 0.0000 7.5000
v  -5.0000 12.0000 7.5000
v  5.0000 12.0000 7.5000
v  5.0000 12.0000 -7.5000
v  -5.0000 12.0000 -7.5000
# 8 vertices

vn 0.0000 -1.0000 -0.0000
vn 0.0000 1.0000 -0.0000
vn 0.0000 0.0000 1.0000
vn 0.0000 0.0000 -1.0000
vn -1.0000 0.0000 -0.0000
# 5 vertex normals

vt 0.6598 0.1564 0.0000
vt 0.4552 0.1564 0.0000
vt 0.4552 0.0200 0.0000
vt 0.6598 0.0200 0.0000
vt 0.2376 0.5765 0.0000
vt 0.2376 0.4401 0.0000
vt 0.4422 0.4401 0.0000
vt 0.4422 0.5765 0.0000
vt 0.4810 0.3740 0.0000
vt 0.4810 0.2376 0.0000
vt 0.6447 0.2376 0.0000
vt 0.6447 0.3740 0.0000
vt 0.0200 0.8092 0.0000
vt 0.0200 0.6727 0.0000
vt 0.1837 0.6727 0.0000
vt 0.1837 0.8092 0.0000
vt 0.4422 0.4013 0.0000
vt 0.2376 0.4013 0.0000
vt 0.2376 0.2376 0.0000
vt 0.4422 0.2376 0.0000
# 20 texture coords

g Box001
usemtl wire_154185229
s 2
f 1/1/1 2/2/1 3/3/1 
f 3/3/1 4/4/1 1/1/1 
s 4
f 5/5/2 6/6/2 7/7/2 
f 7/7/2 8/8/2 5/5/2 
s 8
f 1/9/3 4/10/3 6/11/3 
f 6/11/3 5/12/3 1/9/3 
s 32
f 3/13/4 2/14/4 8/15/4 
f 8/15/4 7/16/4 3/13/4 
s 64
f 2/17/5 1/18/5 5/19/5 
f 5/19/5 8/20/5 2/17/5 
# 10 faces

#
# object Box002
#

v  5.0000 -2.0000 7.5000
v  5.0000 -2.0000 -7.5000
v  6.5000 -2.0000 -7.5000
v  6.5000 -2.0000 7.5000
v  5.0000 13.0000 7.5000
v  6.5000 13.0000 7.5000
v  6.5000 13.0000 -7.5000
v  5.0000 13.0000 -7.5000
# 8 vertices

vn 0.0000 -1.0000 -0.0000
vn 0.0000 1.0000 -0.0000
vn 0.0000 0.0000 1.0000
vn 1.0000 0.0000 -0.0000
vn 0.0000 0.0000 -1.0000
vn -1.0000 0.0000 -0.0000
# 6 vertex normals

vt 0.8192 0.5327 0.0000
vt 0.6145 0.5327 0.0000
vt 0.6145 0.5122 0.0000
vt 0.8192 0.5122 0.0000
vt 0.4257 0.7629 0.0000
vt 0.4257 0.7424 0.0000
vt 0.6303 0.7424 0.0000
vt 0.6303 0.7629 0.0000
vt 0.6964 0.3506 0.0000
vt 0.6964 0.3302 0.0000
vt 0.9010 0.3302 0.0000
vt 0.9010 0.3506 0.0000
vt 0.2376 0.0200 0.0000
vt 0.4422 0.0200 0.0000
vt 0.4422 0.2247 0.0000
vt 0.2376 0.2247 0.0000
vt 0.6145 0.4605 0.0000
vt 0.6145 0.4401 0.0000
vt 0.8192 0.4401 0.0000
vt 0.8192 0.4605 0.0000
vt 0.0200 0.0200 0.0000
vt 0.2247 0.0200 0.0000
vt 0.2247 0.2247 0.0000
vt 0.0200 0.2247 0.0000
# 24 texture coords

g Box002
usemtl wire_088177027
s 2
f 9/21/6 10/22/6 11/23/6 
f 11/23/6 12/24/6 9/21/6 
s 4
f 13/25/7 14/26/7 15/27/7 
f 15/27/7 16/28/7 13/25/7 
s 8
f 9/29/8 12/30/8 14/31/8 
f 14/31/8 13/32/8 9/29/8 
s 16
f 12/33/9 11/34/9 15/35/9 
f 15/35/9 14/36/9 12/33/9 
s 32
f 11/37/10 10/38/10 16/39/10 
f 16/39/10 15/40/10 11/37/10 
s 64
f 10/41/11 9/42/11 13/43/11 
f 13/43/11 16/44/11 10/41/11 
# 12 faces

#
# object Plane001
#

v  12.5000 2.1967 5.3033
v  27.5000 2.1967 5.3033
v  27.5000 12.8033 -5.3033
v  12.5000 12.8033 -5.3033
# 4 vertices

vn 0.0000 0.7071 0.7071
# 1 vertex normals

vt 0.0200 0.2376 0.0000
vt 0.2247 0.2376 0.0000
vt 0.2247 0.4422 0.0000
vt 0.0200 0.4422 0.0000
# 4 texture coords

g Plane001
usemtl wire_228214153
s 1
f 17/45/12 18/46/12 19/47/12 
f 19/47/12 20/48/12 17/45/12 
# 2 faces

#
# object Plane002
#

v  28.5000 2.1967 5.3033
v  43.5000 2.1967 5.3033
v  43.5000 12.8033 -5.3033
v  28.5000 12.8033 -5.3033
# 4 vertices

vn 0.0000 0.7071 0.7071
# 1 vertex normals

vt 0.0200 0.4552 0.0000
vt 0.2247 0.4552 0.0000
vt 0.2247 0.6598 0.0000
vt 0.0200 0.6598 0.0000
# 4 texture coords

g Plane002
usemtl wire_008061138
s 1
f 21/49/13 22/50/13 23/51/13 
f 23/51/13 24/52/13 21/49/13 
# 2 faces

#
# object Cylinder001
#

v  2.0000 4.0000 -4.0000
v  1.6180 2.8244 -4.0000
v  1.6180 2.8244 -10.0000
v  2.0000 4.0000 -10.0000
v  0.6180 2.0979 -4.0000
v  0.6180 2.0979 -10.0000
v  -0.6180 2.0979 -4.0000
v  -0.6180 2.0979 -10.0000
v  -1.6180 2.8244 -4.0000
v  -1.6180 2.8244 -10.0000
v  -2.0000 4.0000 -4.0000
v  -2.0000 4.0000 -10.0000
v  -1.6180 5.1756 -4.0000
v  -1.6180 5.1756 -10.0000
v  -0.6180 5.9021 -4.0000
v  -0.6180 5.9021 -10.0000
v  0.6180 5.9021 -4.0000
v  0.6180 5.9021 -10.0000
v  1.6180 5.1756 -4.0000
v  1.6180 5.1756 -10.0000
# 20 vertices

vn 1.0000 -0.0000 0.0000
vn 0.8090 -0.5878 0.0000
vn 0.3090 -0.9511 0.0000
vn -0.3090 -0.9511 0.0000
vn -0.8090 -0.5878 0.0000
vn -1.0000 0.0000 -0.0000
vn -0.8090 0.5878 -0.0000
vn -0.3090 0.9511 -0.0000
vn 0.3090 0.9511 -0.0000
vn 0.8090 0.5878 -0.0000
vn 0.0000 -0.0000 -1.0000
# 11 vertex normals

vt 0.2376 0.8673 0.0000
vt 0.2376 0.8513 0.0000
vt 0.3194 0.8513 0.0000
vt 0.3194 0.8673 0.0000
vt 0.2376 0.8414 0.0000
vt 0.3194 0.8414 0.0000
vt 0.8708 0.5291 0.0000
vt 0.8708 0.5122 0.0000
vt 0.9527 0.5122 0.0000
vt 0.9527 0.5291 0.0000
vt 0.4257 0.8665 0.0000
vt 0.4257 0.8565 0.0000
vt 0.5075 0.8565 0.0000
vt 0.5075 0.8665 0.0000
vt 0.4257 0.8405 0.0000
vt 0.5075 0.8405 0.0000
vt 0.4257 0.8245 0.0000
vt 0.5075 0.8245 0.0000
vt 0.4257 0.8146 0.0000
vt 0.5075 0.8146 0.0000
vt 0.6820 0.7593 0.0000
vt 0.6820 0.7424 0.0000
vt 0.7639 0.7424 0.0000
vt 0.7639 0.7593 0.0000
vt 0.2376 0.8933 0.0000
vt 0.2376 0.8834 0.0000
vt 0.3194 0.8834 0.0000
vt 0.3194 0.8933 0.0000
vt 0.9048 0.0299 0.0000
vt 0.9184 0.0200 0.0000
vt 0.9353 0.0200 0.0000
vt 0.9490 0.0299 0.0000
vt 0.9542 0.0460 0.0000
vt 0.9490 0.0620 0.0000
vt 0.9353 0.0719 0.0000
vt 0.9184 0.0719 0.0000
vt 0.9048 0.0620 0.0000
vt 0.8996 0.0460 0.0000
# 38 texture coords

g Cylinder001
usemtl wire_214228153
s 8
f 25/53/14 26/54/15 27/55/15 
f 27/55/15 28/56/14 25/53/14 
f 26/54/15 29/57/16 30/58/16 
f 30/58/16 27/55/15 26/54/15 
f 29/59/16 31/60/17 32/61/17 
f 32/61/17 30/62/16 29/59/16 
f 31/63/17 33/64/18 34/65/18 
f 34/65/18 32/66/17 31/63/17 
f 33/64/18 35/67/19 36/68/19 
f 36/68/19 34/65/18 33/64/18 
f 35/67/19 37/69/20 38/70/20 
f 38/70/20 36/68/19 35/67/19 
f 37/69/20 39/71/21 40/72/21 
f 40/72/21 38/70/20 37/69/20 
f 39/73/21 41/74/22 42/75/22 
f 42/75/22 40/76/21 39/73/21 
f 41/77/22 43/78/23 44/79/23 
f 44/79/23 42/80/22 41/77/22 
f 43/78/23 25/53/14 28/56/14 
f 28/56/14 44/79/23 43/78/23 
s 1
f 27/81/24 30/82/24 32/83/24 
f 32/83/24 34/84/24 36/85/24 
f 36/85/24 38/86/24 40/87/24 
f 40/87/24 42/88/24 44/89/24 
f 36/85/24 40/87/24 44/89/24 
f 32/83/24 36/85/24 44/89/24 
f 27/81/24 32/83/24 44/89/24 
f 28/90/24 27/81/24 44/89/24 
# 28 faces

#
# object Cylinder002
#

v  2.0000 8.0000 -4.0000
v  1.6180 6.8244 -4.0000
v  1.6180 6.8244 -10.0000
v  2.0000 8.0000 -10.0000
v  0.6180 6.0979 -4.0000
v  0.6180 6.0979 -10.0000
v  -0.6180 6.0979 -4.0000
v  -0.6180 6.0979 -10.0000
v  -1.6180 6.8244 -4.0000
v  -1.6180 6.8244 -10.0000
v  -2.0000 8.0000 -4.0000
v  -2.0000 8.0000 -10.0000
v  -1.6180 9.1756 -4.0000
v  -1.6180 9.1756 -10.0000
v  -0.6180 9.9021 -4.0000
v  -0.6180 9.9021 -10.0000
v  0.6180 9.9021 -4.0000
v  0.6180 9.9021 -10.0000
v  1.6180 9.1756 -4.0000
v  1.6180 9.1756 -10.0000
# 20 vertices

vn 1.0000 -0.0000 0.0000
vn 0.8090 -0.5878 0.0000
vn 0.3090 -0.9511 0.0000
vn -0.3090 -0.9511 0.0000
vn -0.8090 -0.5878 0.0000
vn -1.0000 0.0000 -0.0000
vn -0.8090 0.5878 -0.0000
vn -0.3090 0.9511 -0.0000
vn 0.3090 0.9511 -0.0000
vn 0.8090 0.5878 -0.0000
vn 0.0000 -0.0000 -1.0000
# 11 vertex normals

vt 0.5592 0.8405 0.0000
vt 0.5592 0.8245 0.0000
vt 0.6411 0.8245 0.0000
vt 0.6411 0.8405 0.0000
vt 0.5592 0.8146 0.0000
vt 0.6411 0.8146 0.0000
vt 0.2376 0.9618 0.0000
vt 0.2376 0.9450 0.0000
vt 0.3194 0.9450 0.0000
vt 0.3194 0.9618 0.0000
vt 0.6928 0.8665 0.0000
vt 0.6928 0.8565 0.0000
vt 0.7746 0.8565 0.0000
vt 0.7746 0.8665 0.0000
vt 0.6928 0.8405 0.0000
vt 0.7746 0.8405 0.0000
vt 0.6928 0.8245 0.0000
vt 0.7746 0.8245 0.0000
vt 0.6928 0.8146 0.0000
vt 0.7746 0.8146 0.0000
vt 0.8708 0.4569 0.0000
vt 0.8708 0.4401 0.0000
vt 0.9527 0.4401 0.0000
vt 0.9527 0.4569 0.0000
vt 0.5592 0.8665 0.0000
vt 0.5592 0.8565 0.0000
vt 0.6411 0.8565 0.0000
vt 0.6411 0.8665 0.0000
vt 0.1458 0.8708 0.0000
vt 0.1595 0.8608 0.0000
vt 0.1763 0.8608 0.0000
vt 0.1900 0.8708 0.0000
vt 0.1952 0.8868 0.0000
vt 0.1900 0.9028 0.0000
vt 0.1763 0.9127 0.0000
vt 0.1595 0.9127 0.0000
vt 0.1458 0.9028 0.0000
vt 0.1406 0.8868 0.0000
# 38 texture coords

g Cylinder002
usemtl wire_225198087
s 8
f 45/91/25 46/92/26 47/93/26 
f 47/93/26 48/94/25 45/91/25 
f 46/92/26 49/95/27 50/96/27 
f 50/96/27 47/93/26 46/92/26 
f 49/97/27 51/98/28 52/99/28 
f 52/99/28 50/100/27 49/97/27 
f 51/101/28 53/102/29 54/103/29 
f 54/103/29 52/104/28 51/101/28 
f 53/102/29 55/105/30 56/106/30 
f 56/106/30 54/103/29 53/102/29 
f 55/105/30 57/107/31 58/108/31 
f 58/108/31 56/106/30 55/105/30 
f 57/107/31 59/109/32 60/110/32 
f 60/110/32 58/108/31 57/107/31 
f 59/111/32 61/112/33 62/113/33 
f 62/113/33 60/114/32 59/111/32 
f 61/115/33 63/116/34 64/117/34 
f 64/117/34 62/118/33 61/115/33 
f 63/116/34 45/91/25 48/94/25 
f 48/94/25 64/117/34 63/116/34 
s 1
f 47/119/35 50/120/35 52/121/35 
f 52/121/35 54/122/35 56/123/35 
f 56/123/35 58/124/35 60/125/35 
f 60/125/35 62/126/35 64/127/35 
f 56/123/35 60/125/35 64/127/35 
f 52/121/35 56/123/35 64/127/35 
f 47/119/35 52/121/35 64/127/35 
f 48/128/35 47/119/35 64/127/35 
# 28 faces

#
# object Cylinder003
#

v  0.9271 11.9825 6.0175
v  -0.9271 11.9825 6.0175
v  -2.4271 12.7531 5.2469
v  -3.0000 14.0000 4.0000
v  -2.4271 15.2469 2.7531
v  -0.9271 16.0175 1.9825
v  0.9271 16.0175 1.9825
v  2.4271 15.2469 2.7531
v  3.0000 14.0000 4.0000
v  2.4271 12.7531 5.2469
# 10 vertices

vn 0.0000 -0.7071 -0.7071
# 1 vertex normals

vt 0.5222 0.4401 0.0000
vt 0.5475 0.4401 0.0000
vt 0.5680 0.4549 0.0000
vt 0.5758 0.4790 0.0000
vt 0.5680 0.5030 0.0000
vt 0.5475 0.5179 0.0000
vt 0.5222 0.5179 0.0000
vt 0.5017 0.5030 0.0000
vt 0.4939 0.4790 0.0000
vt 0.5017 0.4549 0.0000
# 10 texture coords

g Cylinder003
usemtl wire_027177027
s 1
f 65/129/36 66/130/36 67/131/36 
f 67/131/36 68/132/36 69/133/36 
f 69/133/36 70/134/36 71/135/36 
f 71/135/36 72/136/36 73/137/36 
f 69/133/36 71/135/36 73/137/36 
f 67/131/36 69/133/36 73/137/36 
f 65/129/36 67/131/36 73/137/36 
f 74/138/36 65/129/36 73/137/36 
# 8 faces

#
# object Cylinder004
#

v  2.4271 -3.1758 1.6821
v  0.9271 -3.9464 0.9114
v  -0.9271 -3.9464 0.9114
v  -2.4271 -3.1758 1.6821
v  -3.0000 -1.9289 2.9289
v  -2.4271 -0.6821 4.1758
v  -0.9271 0.0886 4.9464
v  0.9271 0.0886 4.9464
v  2.4271 -0.6821 4.1758
v  3.0000 -1.9289 2.9289
# 10 vertices

vn 0.0000 0.7071 -0.7071
# 1 vertex normals

vt 0.0278 0.8757 0.0000
vt 0.0483 0.8608 0.0000
vt 0.0736 0.8608 0.0000
vt 0.0940 0.8757 0.0000
vt 0.1019 0.8998 0.0000
vt 0.0940 0.9238 0.0000
vt 0.0736 0.9387 0.0000
vt 0.0483 0.9387 0.0000
vt 0.0278 0.9238 0.0000
vt 0.0200 0.8998 0.0000
# 10 texture coords

g Cylinder004
usemtl wire_229166215
s 1
f 75/139/37 76/140/37 77/141/37 
f 77/141/37 78/142/37 79/143/37 
f 79/143/37 80/144/37 81/145/37 
f 81/145/37 82/146/37 83/147/37 
f 79/143/37 81/145/37 83/147/37 
f 77/141/37 79/143/37 83/147/37 
f 75/139/37 77/141/37 83/147/37 
f 84/148/37 75/139/37 83/147/37 
# 8 faces

#
# object Cylinder005
#

v  5.0000 7.3000 -0.4000
v  5.0000 7.5000 -0.6000
v  35.0000 7.5000 -0.6000
v  35.0000 7.3000 -0.4000
v  5.0000 7.7000 -0.4000
v  35.0000 7.7000 -0.4000
v  5.0000 7.5000 -0.2000
v  35.0000 7.5000 -0.2000
# 8 vertices

vn -0.0000 -1.0000 0.0000
vn 0.0000 0.0000 -1.0000
vn -0.0000 -1.0000 -0.0000
vn 0.0000 1.0000 0.0000
vn -0.0000 -0.0000 1.0000
# 5 vertex normals

vt 0.4257 0.6309 0.0000
vt 0.4257 0.6282 0.0000
vt 0.8350 0.6282 0.0000
vt 0.8350 0.6309 0.0000
vt 0.4257 0.6907 0.0000
vt 0.4257 0.6880 0.0000
vt 0.8350 0.6880 0.0000
vt 0.8350 0.6907 0.0000
vt 0.4257 0.6853 0.0000
vt 0.8350 0.6853 0.0000
vt 0.4257 0.6336 0.0000
vt 0.8350 0.6336 0.0000
# 12 texture coords

g Cylinder005
usemtl wire_229166215
s 8
f 85/149/38 86/150/39 87/151/39 
f 87/151/39 88/152/40 85/149/38 
f 86/153/39 89/154/41 90/155/41 
f 90/155/41 87/156/39 86/153/39 
f 89/154/41 91/157/42 92/158/42 
f 92/158/42 90/155/41 89/154/41 
f 91/159/42 85/149/38 88/152/40 
f 88/152/40 92/160/42 91/159/42 
# 8 faces

#
# object Box003
#

v  -1.0000 4.0000 9.0000
v  -1.0000 4.0000 7.0000
v  1.0000 4.0000 7.0000
v  1.0000 4.0000 9.0000
v  -1.0000 6.0000 9.0000
v  1.0000 6.0000 9.0000
v  1.0000 6.0000 7.0000
v  -1.0000 6.0000 7.0000
# 8 vertices

vn 0.0000 -1.0000 -0.0000
vn 0.0000 1.0000 -0.0000
vn 0.0000 0.0000 1.0000
vn 1.0000 0.0000 -0.0000
vn -1.0000 0.0000 -0.0000
# 5 vertex normals

vt 0.4939 0.5840 0.0000
vt 0.4939 0.5567 0.0000
vt 0.5212 0.5567 0.0000
vt 0.5212 0.5840 0.0000
vt 0.8867 0.6282 0.0000
vt 0.9140 0.6282 0.0000
vt 0.9140 0.6555 0.0000
vt 0.8867 0.6555 0.0000
vt 0.1406 0.9515 0.0000
vt 0.1679 0.9515 0.0000
vt 0.1679 0.9788 0.0000
vt 0.1406 0.9788 0.0000
vt 0.6145 0.5843 0.0000
vt 0.6418 0.5843 0.0000
vt 0.6418 0.6116 0.0000
vt 0.6145 0.6116 0.0000
vt 0.9527 0.3302 0.0000
vt 0.9800 0.3302 0.0000
vt 0.9800 0.3575 0.0000
vt 0.9527 0.3575 0.0000
# 20 texture coords

g Box003
usemtl wire_154185229
s 2
f 93/161/43 94/162/43 95/163/43 
f 95/163/43 96/164/43 93/161/43 
s 4
f 97/165/44 98/166/44 99/167/44 
f 99/167/44 100/168/44 97/165/44 
s 8
f 93/169/45 96/170/45 98/171/45 
f 98/171/45 97/172/45 93/169/45 
s 16
f 96/173/46 95/174/46 99/175/46 
f 99/175/46 98/176/46 96/173/46 
s 64
f 94/177/47 93/178/47 97/179/47 
f 97/179/47 100/180/47 94/177/47 
# 10 faces

#
# object Box004
#

v  -1.0000 7.0000 9.0000
v  -1.0000 7.0000 7.0000
v  1.0000 7.0000 7.0000
v  1.0000 7.0000 9.0000
v  -1.0000 9.0000 9.0000
v  1.0000 9.0000 9.0000
v  1.0000 9.0000 7.0000
v  -1.0000 9.0000 7.0000
# 8 vertices

vn 0.0000 -1.0000 -0.0000
vn 0.0000 1.0000 -0.0000
vn 0.0000 0.0000 1.0000
vn 1.0000 0.0000 -0.0000
vn -1.0000 0.0000 -0.0000
# 5 vertex normals

vt 0.3472 0.7617 0.0000
vt 0.3472 0.7344 0.0000
vt 0.3745 0.7344 0.0000
vt 0.3745 0.7617 0.0000
vt 0.3711 0.8414 0.0000
vt 0.3984 0.8414 0.0000
vt 0.3984 0.8687 0.0000
vt 0.3711 0.8687 0.0000
vt 0.8155 0.7424 0.0000
vt 0.8428 0.7424 0.0000
vt 0.8428 0.7697 0.0000
vt 0.8155 0.7697 0.0000
vt 0.8867 0.6853 0.0000
vt 0.9140 0.6853 0.0000
vt 0.9140 0.7126 0.0000
vt 0.8867 0.7126 0.0000
vt 0.8263 0.8146 0.0000
vt 0.8536 0.8146 0.0000
vt 0.8536 0.8418 0.0000
vt 0.8263 0.8418 0.0000
# 20 texture coords

g Box004
usemtl wire_087225087
s 2
f 101/181/48 102/182/48 103/183/48 
f 103/183/48 104/184/48 101/181/48 
s 4
f 105/185/49 106/186/49 107/187/49 
f 107/187/49 108/188/49 105/185/49 
s 8
f 101/189/50 104/190/50 106/191/50 
f 106/191/50 105/192/50 101/189/50 
s 16
f 104/193/51 103/194/51 107/195/51 
f 107/195/51 106/196/51 104/193/51 
s 64
f 102/197/52 101/198/52 105/199/52 
f 105/199/52 108/200/52 102/197/52 
# 10 faces

#
# object Box005
#

v  -6.0000 1.0000 9.0000
v  -6.0000 1.0000 5.0000
v  -3.0000 1.0000 5.0000
v  -3.0000 1.0000 9.0000
v  -6.0000 11.0000 9.0000
v  -3.0000 11.0000 9.0000
v  -3.0000 11.0000 5.0000
v  -6.0000 11.0000 5.0000
# 8 vertices

vn 0.0000 -1.0000 -0.0000
vn 0.0000 1.0000 -0.0000
vn 0.0000 0.0000 1.0000
vn 1.0000 0.0000 -0.0000
vn 0.0000 0.0000 -1.0000
vn -1.0000 0.0000 -0.0000
# 6 vertex normals

vt 0.6138 0.9591 0.0000
vt 0.5592 0.9591 0.0000
vt 0.5592 0.9181 0.0000
vt 0.6138 0.9181 0.0000
vt 0.6928 0.9591 0.0000
vt 0.6928 0.9181 0.0000
vt 0.7473 0.9181 0.0000
vt 0.7473 0.9591 0.0000
vt 0.6964 0.2785 0.0000
vt 0.6964 0.2376 0.0000
vt 0.8328 0.2376 0.0000
vt 0.8328 0.2785 0.0000
vt 0.7115 0.0746 0.0000
vt 0.7115 0.0200 0.0000
vt 0.8479 0.0200 0.0000
vt 0.8479 0.0746 0.0000
vt 0.7115 0.1672 0.0000
vt 0.7115 0.1262 0.0000
vt 0.8479 0.1262 0.0000
vt 0.8479 0.1672 0.0000
vt 0.2376 0.6827 0.0000
vt 0.2376 0.6282 0.0000
vt 0.3740 0.6282 0.0000
vt 0.3740 0.6827 0.0000
# 24 texture coords

g Box005
usemtl wire_177088027
s 2
f 109/201/53 110/202/53 111/203/53 
f 111/203/53 112/204/53 109/201/53 
s 4
f 113/205/54 114/206/54 115/207/54 
f 115/207/54 116/208/54 113/205/54 
s 8
f 109/209/55 112/210/55 114/211/55 
f 114/211/55 113/212/55 109/209/55 
s 16
f 112/213/56 111/214/56 115/215/56 
f 115/215/56 114/216/56 112/213/56 
s 32
f 111/217/57 110/218/57 116/219/57 
f 116/219/57 115/220/57 111/217/57 
s 64
f 110/221/58 109/222/58 113/223/58 
f 113/223/58 116/224/58 110/221/58 
# 12 faces

#
# object Cone001
#

v  4.2463 7.0000 7.0000
v  4.2133 7.2500 7.0000
v  5.2800 8.5000 12.0000
v  5.4780 7.0000 12.0000
v  4.1232 7.4330 7.0000
v  4.7390 9.5981 12.0000
v  4.0000 7.5000 7.0000
v  4.0000 10.0000 12.0000
v  3.8768 7.4330 7.0000
v  3.2610 9.5981 12.0000
v  3.7867 7.2500 7.0000
v  2.7200 8.5000 12.0000
v  3.7537 7.0000 7.0000
v  2.5220 7.0000 12.0000
v  3.7867 6.7500 7.0000
v  2.7200 5.5000 12.0000
v  3.8768 6.5670 7.0000
v  3.2610 4.4019 12.0000
v  4.0000 6.5000 7.0000
v  4.0000 4.0000 12.0000
v  4.1232 6.5670 7.0000
v  4.7390 4.4019 12.0000
v  4.2133 6.7500 7.0000
v  5.2800 5.5000 12.0000
# 24 vertices

vn 0.8944 -0.0000 -0.4472
vn 0.7746 0.4472 -0.4472
vn 0.4472 0.7746 -0.4472
vn -0.0000 0.8944 -0.4472
vn -0.4472 0.7746 -0.4472
vn -0.7746 0.4472 -0.4472
vn -0.8944 0.0000 -0.4472
vn -0.7746 -0.4472 -0.4472
vn -0.4472 -0.7746 -0.4472
vn -0.0000 -0.8944 -0.4472
vn 0.4472 -0.7746 -0.4472
vn 0.7746 -0.4472 -0.4472
vn 0.0000 0.0000 -1.0000
# 13 vertex normals

vt 0.2730 0.8026 0.0000
vt 0.2696 0.8026 0.0000
vt 0.2526 0.7344 0.0000
vt 0.2730 0.7344 0.0000
vt 0.2671 0.8026 0.0000
vt 0.2376 0.7344 0.0000
vt 0.8845 0.2615 0.0000
vt 0.8845 0.2580 0.0000
vt 0.9527 0.2580 0.0000
vt 0.9527 0.2785 0.0000
vt 0.8845 0.2546 0.0000
vt 0.9527 0.2376 0.0000
vt 0.9409 0.1945 0.0000
vt 0.9384 0.1945 0.0000
vt 0.9555 0.1262 0.0000
vt 0.9705 0.1262 0.0000
vt 0.9350 0.1945 0.0000
vt 0.9350 0.1262 0.0000
vt 0.9316 0.1945 0.0000
vt 0.9146 0.1262 0.0000
vt 0.9291 0.1945 0.0000
vt 0.8996 0.1262 0.0000
vt 0.4257 0.9420 0.0000
vt 0.4257 0.9386 0.0000
vt 0.4939 0.9386 0.0000
vt 0.4939 0.9591 0.0000
vt 0.4257 0.9352 0.0000
vt 0.4939 0.9181 0.0000
vt 0.2789 0.8026 0.0000
vt 0.2764 0.8026 0.0000
vt 0.2935 0.7344 0.0000
vt 0.3085 0.7344 0.0000
vt 0.3711 0.9533 0.0000
vt 0.3711 0.9497 0.0000
vt 0.3729 0.9467 0.0000
vt 0.3760 0.9450 0.0000
vt 0.3795 0.9450 0.0000
vt 0.3826 0.9468 0.0000
vt 0.3843 0.9498 0.0000
vt 0.3843 0.9534 0.0000
vt 0.3825 0.9564 0.0000
vt 0.3794 0.9582 0.0000
vt 0.3759 0.9581 0.0000
vt 0.3729 0.9563 0.0000
# 44 texture coords

g Cone001
usemtl wire_148177027
s 8
f 117/225/59 118/226/60 119/227/60 
f 119/227/60 120/228/59 117/225/59 
f 118/226/60 121/229/61 122/230/61 
f 122/230/61 119/227/60 118/226/60 
f 121/231/61 123/232/62 124/233/62 
f 124/233/62 122/234/61 121/231/61 
f 123/232/62 125/235/63 126/236/63 
f 126/236/63 124/233/62 123/232/62 
f 125/237/63 127/238/64 128/239/64 
f 128/239/64 126/240/63 125/237/63 
f 127/238/64 129/241/65 130/242/65 
f 130/242/65 128/239/64 127/238/64 
f 129/241/65 131/243/66 132/244/66 
f 132/244/66 130/242/65 129/241/65 
f 131/243/66 133/245/67 134/246/67 
f 134/246/67 132/244/66 131/243/66 
f 133/247/67 135/248/68 136/249/68 
f 136/249/68 134/250/67 133/247/67 
f 135/248/68 137/251/69 138/252/69 
f 138/252/69 136/249/68 135/248/68 
f 137/253/69 139/254/70 140/255/70 
f 140/255/70 138/256/69 137/253/69 
f 139/254/70 117/225/59 120/228/59 
f 120/228/59 140/255/70 139/254/70 
s 1
f 137/257/71 135/258/71 133/259/71 
f 133/259/71 131/260/71 129/261/71 
f 129/261/71 127/262/71 125/263/71 
f 133/259/71 129/261/71 125/263/71 
f 125/263/71 123/264/71 121/265/71 
f 121/265/71 118/266/71 117/267/71 
f 125/263/71 121/265/71 117/267/71 
f 133/259/71 125/263/71 117/267/71 
f 137/257/71 133/259/71 117/267/71 
f 139/268/71 137/257/71 117/267/71 
# 34 faces

