# 3ds Max Wavefront OBJ Exporter v0.97b - (c)2007 guruware
# File Created: 13.08.2014 17:51:48

mtllib cone.mtl

#
# object Cone001
#

v  0.0000 0.0000 -0.0000
v  0.9659 1.0000 -0.2588
v  1.0000 1.0000 -0.0000
v  0.8660 1.0000 -0.5000
v  0.7071 1.0000 -0.7071
v  0.5000 1.0000 -0.8660
v  0.2588 1.0000 -0.9659
v  0.0000 1.0000 -1.0000
v  -0.2588 1.0000 -0.9659
v  -0.5000 1.0000 -0.8660
v  -0.7071 1.0000 -0.7071
v  -0.8660 1.0000 -0.5000
v  -0.9659 1.0000 -0.2588
v  -1.0000 1.0000 -0.0000
v  -0.9659 1.0000 0.2588
v  -0.8660 1.0000 0.5000
v  -0.7071 1.0000 0.7071
v  -0.5000 1.0000 0.8660
v  -0.2588 1.0000 0.9659
v  -0.0000 1.0000 1.0000
v  0.2588 1.0000 0.9659
v  0.5000 1.0000 0.8660
v  0.7071 1.0000 0.7071
v  0.8660 1.0000 0.5000
v  0.9659 1.0000 0.2588
# 25 vertices

vn 0.7041 -0.7041 -0.0927
vn 0.6561 -0.7041 -0.2718
vn 0.6830 -0.7071 -0.1830
vn 0.7071 -0.7071 0.0000
vn 0.5634 -0.7041 -0.4323
vn 0.6124 -0.7071 -0.3536
vn 0.4323 -0.7041 -0.5634
vn 0.5000 -0.7071 -0.5000
vn 0.2718 -0.7041 -0.6561
vn 0.3536 -0.7071 -0.6124
vn 0.0927 -0.7041 -0.7041
vn 0.1830 -0.7071 -0.6830
vn -0.0927 -0.7041 -0.7041
vn 0.0000 -0.7071 -0.7071
vn -0.2718 -0.7041 -0.6561
vn -0.1830 -0.7071 -0.6830
vn -0.4323 -0.7041 -0.5634
vn -0.3536 -0.7071 -0.6124
vn -0.5634 -0.7041 -0.4323
vn -0.5000 -0.7071 -0.5000
vn -0.6561 -0.7041 -0.2718
vn -0.6124 -0.7071 -0.3536
vn -0.7041 -0.7041 -0.0927
vn -0.6830 -0.7071 -0.1830
vn -0.7041 -0.7041 0.0927
vn -0.7071 -0.7071 -0.0000
vn -0.6561 -0.7041 0.2718
vn -0.6830 -0.7071 0.1830
vn -0.5634 -0.7041 0.4323
vn -0.6124 -0.7071 0.3536
vn -0.4323 -0.7041 0.5634
vn -0.5000 -0.7071 0.5000
vn -0.2718 -0.7041 0.6561
vn -0.3536 -0.7071 0.6124
vn -0.0927 -0.7041 0.7041
vn -0.1830 -0.7071 0.6830
vn 0.0927 -0.7041 0.7041
vn -0.0000 -0.7071 0.7071
vn 0.2718 -0.7041 0.6561
vn 0.1830 -0.7071 0.6830
vn 0.4323 -0.7041 0.5634
vn 0.3536 -0.7071 0.6124
vn 0.5634 -0.7041 0.4323
vn 0.5000 -0.7071 0.5000
vn 0.6561 -0.7041 0.2718
vn 0.6124 -0.7071 0.3536
vn 0.7041 -0.7041 0.0927
vn 0.6830 -0.7071 0.1830
vn 1.0000 0.0000 -0.0000
# 49 vertex normals

vt 0.5000 0.4480 0.0000
vt 0.5460 0.9438 0.0000
vt 0.4540 0.9438 0.0000
vt 0.6363 0.9269 0.0000
vt 0.7220 0.8937 0.0000
vt 0.8002 0.8453 0.0000
vt 0.8681 0.7834 0.0000
vt 0.9235 0.7100 0.0000
vt 0.9644 0.6277 0.0000
vt 0.9896 0.5393 0.0000
vt 0.9980 0.4477 0.0000
vt 0.9895 0.3562 0.0000
vt 0.9643 0.2678 0.0000
vt 0.9232 0.1855 0.0000
vt 0.8678 0.1122 0.0000
vt 0.7998 0.0503 0.0000
vt 0.7216 0.0020 0.0000
vt 0.0020 0.4477 0.0000
vt 0.0105 0.3562 0.0000
vt 0.0104 0.5393 0.0000
vt 0.0356 0.6277 0.0000
vt 0.0765 0.7100 0.0000
vt 0.1319 0.7834 0.0000
vt 0.1998 0.8453 0.0000
vt 0.2780 0.8937 0.0000
vt 0.3637 0.9269 0.0000
# 26 texture coords

g Cone001
usemtl wire_184228153
s 8
f 1/1/1 1/1/2 2/2/3 
f 2/2/3 3/3/4 1/1/1 
f 1/1/2 1/1/5 4/4/6 
f 4/4/6 2/2/3 1/1/2 
f 1/1/5 1/1/7 5/5/8 
f 5/5/8 4/4/6 1/1/5 
f 1/1/7 1/1/9 6/6/10 
f 6/6/10 5/5/8 1/1/7 
f 1/1/9 1/1/11 7/7/12 
f 7/7/12 6/6/10 1/1/9 
f 1/1/11 1/1/13 8/8/14 
f 8/8/14 7/7/12 1/1/11 
f 1/1/13 1/1/15 9/9/16 
f 9/9/16 8/8/14 1/1/13 
f 1/1/15 1/1/17 10/10/18 
f 10/10/18 9/9/16 1/1/15 
f 1/1/17 1/1/19 11/11/20 
f 11/11/20 10/10/18 1/1/17 
f 1/1/19 1/1/21 12/12/22 
f 12/12/22 11/11/20 1/1/19 
f 1/1/21 1/1/23 13/13/24 
f 13/13/24 12/12/22 1/1/21 
f 1/1/23 1/1/25 14/14/26 
f 14/14/26 13/13/24 1/1/23 
f 1/1/25 1/1/27 15/15/28 
f 15/15/28 14/14/26 1/1/25 
f 1/1/27 1/1/29 16/16/30 
f 16/16/30 15/15/28 1/1/27 
f 1/1/29 1/1/31 17/17/32 
f 17/17/32 16/16/30 1/1/29 
f 1/1/31 1/1/33 18/18/34 
f 18/18/34 17/19/32 1/1/31 
f 1/1/33 1/1/35 19/20/36 
f 19/20/36 18/18/34 1/1/33 
f 1/1/35 1/1/37 20/21/38 
f 20/21/38 19/20/36 1/1/35 
f 1/1/37 1/1/39 21/22/40 
f 21/22/40 20/21/38 1/1/37 
f 1/1/39 1/1/41 22/23/42 
f 22/23/42 21/22/40 1/1/39 
f 1/1/41 1/1/43 23/24/44 
f 23/24/44 22/23/42 1/1/41 
f 1/1/43 1/1/45 24/25/46 
f 24/25/46 23/24/44 1/1/43 
f 1/1/45 1/1/47 25/26/48 
f 25/26/48 24/25/46 1/1/45 
f 1/1/47 1/1/1 3/3/4 
f 3/3/4 25/26/48 1/1/47 
s 1
f 1/1/49 1/1/49 1/1/49 
f 1/1/49 1/1/49 1/1/49 
f 1/1/49 1/1/49 1/1/49 
f 1/1/49 1/1/49 1/1/49 
f 1/1/49 1/1/49 1/1/49 
f 1/1/49 1/1/49 1/1/49 
f 1/1/49 1/1/49 1/1/49 
f 1/1/49 1/1/49 1/1/49 
f 1/1/49 1/1/49 1/1/49 
f 1/1/49 1/1/49 1/1/49 
f 1/1/49 1/1/49 1/1/49 
f 1/1/49 1/1/49 1/1/49 
f 1/1/49 1/1/49 1/1/49 
f 1/1/49 1/1/49 1/1/49 
f 1/1/49 1/1/49 1/1/49 
f 1/1/49 1/1/49 1/1/49 
f 1/1/49 1/1/49 1/1/49 
f 1/1/49 1/1/49 1/1/49 
f 1/1/49 1/1/49 1/1/49 
f 1/1/49 1/1/49 1/1/49 
f 1/1/49 1/1/49 1/1/49 
f 1/1/49 1/1/49 1/1/49 
# 70 faces

