# 3ds Max Wavefront OBJ Exporter v0.97b - (c)2007 guruware
# File Created: 03.07.2014 11:40:28

mtllib fy1.mtl

#
# object Box001
#

v  -7.5000 0.0000 7.5000
v  -7.5000 0.0000 -7.5000
v  7.5000 0.0000 -7.5000
v  7.5000 0.0000 7.5000
v  -7.5000 15.0000 7.5000
v  7.5000 15.0000 7.5000
v  7.5000 15.0000 -7.5000
v  -7.5000 15.0000 -7.5000
# 8 vertices

vn 0.0000 -1.0000 -0.0000
vn 0.0000 1.0000 -0.0000
vn 0.0000 0.0000 1.0000
vn 1.0000 0.0000 -0.0000
vn 0.0000 0.0000 -1.0000
vn -1.0000 0.0000 -0.0000
# 6 vertex normals

vt 0.5687 0.4925 0.0000
vt 0.5687 0.2638 0.0000
vt 0.7974 0.2638 0.0000
vt 0.7974 0.4925 0.0000
vt 0.2638 0.7513 0.0000
vt 0.4925 0.7513 0.0000
vt 0.4925 0.9800 0.0000
vt 0.2638 0.9800 0.0000
vt 0.2638 0.5075 0.0000
vt 0.4925 0.5075 0.0000
vt 0.4925 0.7362 0.0000
vt 0.2638 0.7362 0.0000
vt 0.0200 0.5075 0.0000
vt 0.2487 0.5075 0.0000
vt 0.2487 0.7362 0.0000
vt 0.0200 0.7362 0.0000
vt 0.0200 0.7513 0.0000
vt 0.2487 0.7513 0.0000
vt 0.2487 0.9800 0.0000
vt 0.0200 0.9800 0.0000
vt 0.5687 0.0200 0.0000
vt 0.7974 0.0200 0.0000
vt 0.7974 0.2487 0.0000
vt 0.5687 0.2487 0.0000
# 24 texture coords

g Box001
usemtl wire_061135006
s 2
f 1/1/1 2/2/1 3/3/1 
f 3/3/1 4/4/1 1/1/1 
s 4
f 5/5/2 6/6/2 7/7/2 
f 7/7/2 8/8/2 5/5/2 
s 8
f 1/9/3 4/10/3 6/11/3 
f 6/11/3 5/12/3 1/9/3 
s 16
f 4/13/4 3/14/4 7/15/4 
f 7/15/4 6/16/4 4/13/4 
s 32
f 3/17/5 2/18/5 8/19/5 
f 8/19/5 7/20/5 3/17/5 
s 64
f 2/21/6 1/22/6 5/23/6 
f 5/23/6 8/24/6 2/21/6 
# 12 faces

#
# object Plane001
#

v  7.5000 0.0000 -7.5000
v  42.5000 0.0000 -7.5000
v  42.5000 15.0000 -7.5000
v  7.5000 15.0000 -7.5000
# 4 vertices

vn 0.0000 -0.0000 1.0000
# 1 vertex normals

vt 0.0200 0.2638 0.0000
vt 0.5537 0.2638 0.0000
vt 0.5537 0.4925 0.0000
vt 0.0200 0.4925 0.0000
# 4 texture coords

g Plane001
usemtl wire_213154229
s 1
f 9/25/7 10/26/7 11/27/7 
f 11/27/7 12/28/7 9/25/7 
# 2 faces

#
# object Plane002
#

v  -42.5000 0.0000 -7.5000
v  -7.5000 0.0000 -7.5000
v  -7.5000 15.0000 -7.5000
v  -42.5000 15.0000 -7.5000
# 4 vertices

vn 0.0000 -0.0000 1.0000
# 1 vertex normals

vt 0.0200 0.0200 0.0000
vt 0.5537 0.0200 0.0000
vt 0.5537 0.2487 0.0000
vt 0.0200 0.2487 0.0000
# 4 texture coords

g Plane002
usemtl wire_087225087
s 1
f 13/29/8 14/30/8 15/31/8 
f 15/31/8 16/32/8 13/29/8 
# 2 faces

#
# object Sphere001
#

v  -1.3473 -0.6946 -3.7017
v  -1.3473 0.6946 -3.7017
v  -0.0000 0.6946 -3.9392
v  -0.0000 -0.6946 -3.9392
v  -2.5321 -0.6946 -3.0176
v  -2.5321 0.6946 -3.0176
v  -3.4115 -0.6946 -1.9696
v  -3.4115 0.6946 -1.9696
v  -3.8794 -0.6946 -0.6840
v  -3.8794 0.6946 -0.6840
v  -3.8794 -0.6946 0.6840
v  -3.8794 0.6946 0.6840
v  -3.4115 -0.6946 1.9696
v  -3.4115 0.6946 1.9696
v  -2.5321 -0.6946 3.0176
v  -2.5321 0.6946 3.0176
v  -1.3473 -0.6946 3.7017
v  -1.3473 0.6946 3.7017
v  -0.0000 -0.6946 3.9392
v  -0.0000 0.6946 3.9392
v  1.3473 -0.6946 3.7017
v  1.3473 0.6946 3.7017
v  2.5321 -0.6946 3.0176
v  2.5321 0.6946 3.0176
v  3.4115 -0.6946 1.9696
v  3.4115 0.6946 1.9696
v  3.8794 -0.6946 0.6840
v  3.8794 0.6946 0.6840
v  3.8794 -0.6946 -0.6840
v  3.8794 0.6946 -0.6840
v  3.4115 -0.6946 -1.9696
v  3.4115 0.6946 -1.9696
v  2.5321 -0.6946 -3.0176
v  2.5321 0.6946 -3.0176
v  1.3473 -0.6946 -3.7017
v  1.3473 0.6946 -3.7017
v  -1.1848 -2.0000 -3.2552
v  -0.0000 -2.0000 -3.4641
v  -2.2267 -2.0000 -2.6537
v  -3.0000 -2.0000 -1.7321
v  -3.4115 -2.0000 -0.6015
v  -3.4115 -2.0000 0.6015
v  -3.0000 -2.0000 1.7321
v  -2.2267 -2.0000 2.6537
v  -1.1848 -2.0000 3.2552
v  -0.0000 -2.0000 3.4641
v  1.1848 -2.0000 3.2552
v  2.2267 -2.0000 2.6537
v  3.0000 -2.0000 1.7321
v  3.4115 -2.0000 0.6015
v  3.4115 -2.0000 -0.6015
v  3.0000 -2.0000 -1.7320
v  2.2267 -2.0000 -2.6537
v  1.1848 -2.0000 -3.2552
v  -0.8794 -3.0642 -2.4161
v  -0.0000 -3.0642 -2.5712
v  -1.6527 -3.0642 -1.9696
v  -2.2267 -3.0642 -1.2856
v  -2.5321 -3.0642 -0.4465
v  -2.5321 -3.0642 0.4465
v  -2.2267 -3.0642 1.2856
v  -1.6527 -3.0642 1.9696
v  -0.8794 -3.0642 2.4161
v  -0.0000 -3.0642 2.5712
v  0.8794 -3.0642 2.4161
v  1.6527 -3.0642 1.9696
v  2.2267 -3.0642 1.2856
v  2.5321 -3.0642 0.4465
v  2.5321 -3.0642 -0.4465
v  2.2267 -3.0642 -1.2856
v  1.6527 -3.0642 -1.9696
v  0.8794 -3.0642 -2.4161
v  -0.4679 -3.7588 -1.2856
v  -0.0000 -3.7588 -1.3681
v  -0.8794 -3.7588 -1.0480
v  -1.1848 -3.7588 -0.6840
v  -1.3473 -3.7588 -0.2376
v  -1.3473 -3.7588 0.2376
v  -1.1848 -3.7588 0.6840
v  -0.8794 -3.7588 1.0480
v  -0.4679 -3.7588 1.2856
v  -0.0000 -3.7588 1.3681
v  0.4679 -3.7588 1.2856
v  0.8794 -3.7588 1.0480
v  1.1848 -3.7588 0.6840
v  1.3473 -3.7588 0.2376
v  1.3473 -3.7588 -0.2376
v  1.1848 -3.7588 -0.6840
v  0.8794 -3.7588 -1.0480
v  0.4679 -3.7588 -1.2856
v  0.0000 -4.0000 -0.0000
# 91 vertices

vn -0.3370 -0.1705 -0.9259
vn -0.3420 -0.0000 -0.9397
vn 0.0000 -0.0000 -1.0000
vn 0.0000 -0.1705 -0.9854
vn -0.6334 -0.1705 -0.7548
vn -0.6428 -0.0000 -0.7660
vn -0.8534 -0.1705 -0.4927
vn -0.8660 -0.0000 -0.5000
vn -0.9704 -0.1705 -0.1711
vn -0.9848 -0.0000 -0.1736
vn -0.9704 -0.1705 0.1711
vn -0.9848 -0.0000 0.1736
vn -0.8534 -0.1705 0.4927
vn -0.8660 -0.0000 0.5000
vn -0.6334 -0.1705 0.7548
vn -0.6428 -0.0000 0.7660
vn -0.3370 -0.1705 0.9259
vn -0.3420 -0.0000 0.9397
vn -0.0000 -0.1705 0.9854
vn -0.0000 -0.0000 1.0000
vn 0.3370 -0.1705 0.9259
vn 0.3420 -0.0000 0.9397
vn 0.6334 -0.1705 0.7548
vn 0.6428 -0.0000 0.7660
vn 0.8534 -0.1705 0.4927
vn 0.8660 -0.0000 0.5000
vn 0.9704 -0.1705 0.1711
vn 0.9848 -0.0000 0.1736
vn 0.9704 -0.1705 -0.1711
vn 0.9848 -0.0000 -0.1736
vn 0.8534 -0.1705 -0.4927
vn 0.8660 -0.0000 -0.5000
vn 0.6334 -0.1705 -0.7548
vn 0.6428 -0.0000 -0.7660
vn 0.3370 -0.1705 -0.9259
vn 0.3420 -0.0000 -0.9397
vn -0.2978 -0.4919 -0.8182
vn 0.0000 -0.4919 -0.8707
vn -0.5597 -0.4919 -0.6670
vn -0.7540 -0.4919 -0.4353
vn -0.8574 -0.4919 -0.1512
vn -0.8574 -0.4919 0.1512
vn -0.7540 -0.4919 0.4353
vn -0.5597 -0.4919 0.6670
vn -0.2978 -0.4919 0.8182
vn -0.0000 -0.4919 0.8707
vn 0.2978 -0.4919 0.8182
vn 0.5597 -0.4919 0.6670
vn 0.7540 -0.4919 0.4353
vn 0.8574 -0.4919 0.1512
vn 0.8575 -0.4919 -0.1512
vn 0.7540 -0.4919 -0.4353
vn 0.5597 -0.4919 -0.6670
vn 0.2978 -0.4919 -0.8182
vn -0.2236 -0.7567 -0.6144
vn 0.0000 -0.7567 -0.6538
vn -0.4203 -0.7567 -0.5009
vn -0.5662 -0.7567 -0.3269
vn -0.6439 -0.7567 -0.1135
vn -0.6439 -0.7567 0.1135
vn -0.5662 -0.7567 0.3269
vn -0.4203 -0.7567 0.5009
vn -0.2236 -0.7567 0.6144
vn -0.0000 -0.7567 0.6538
vn 0.2236 -0.7567 0.6144
vn 0.4203 -0.7567 0.5009
vn 0.5662 -0.7567 0.3269
vn 0.6439 -0.7567 0.1135
vn 0.6439 -0.7567 -0.1135
vn 0.5662 -0.7567 -0.3269
vn 0.4203 -0.7567 -0.5009
vn 0.2236 -0.7567 -0.6144
vn -0.1227 -0.9334 -0.3372
vn 0.0000 -0.9334 -0.3588
vn -0.2306 -0.9334 -0.2749
vn -0.3107 -0.9334 -0.1794
vn -0.3534 -0.9334 -0.0623
vn -0.3534 -0.9334 0.0623
vn -0.3107 -0.9334 0.1794
vn -0.2306 -0.9334 0.2749
vn -0.1227 -0.9334 0.3372
vn -0.0000 -0.9334 0.3588
vn 0.1227 -0.9334 0.3372
vn 0.2306 -0.9334 0.2749
vn 0.3107 -0.9334 0.1794
vn 0.3534 -0.9334 0.0623
vn 0.3534 -0.9334 -0.0623
vn 0.3108 -0.9334 -0.1794
vn 0.2306 -0.9334 -0.2749
vn 0.1227 -0.9334 -0.3372
vn 0.0000 -1.0000 -0.0000
# 91 vertex normals

vt 0.9290 0.0704 0.0000
vt 0.9290 0.0916 0.0000
vt 0.9326 0.0916 0.0000
vt 0.9326 0.0704 0.0000
vt 0.9185 0.0704 0.0000
vt 0.9185 0.0916 0.0000
vt 0.9026 0.0704 0.0000
vt 0.9026 0.0916 0.0000
vt 0.8830 0.0704 0.0000
vt 0.8830 0.0916 0.0000
vt 0.8621 0.0704 0.0000
vt 0.8621 0.0916 0.0000
vt 0.8425 0.0704 0.0000
vt 0.8425 0.0916 0.0000
vt 0.8265 0.0704 0.0000
vt 0.8265 0.0916 0.0000
vt 0.8161 0.0704 0.0000
vt 0.8161 0.0916 0.0000
vt 0.8125 0.0704 0.0000
vt 0.8125 0.0916 0.0000
vt 0.9222 0.0505 0.0000
vt 0.9254 0.0505 0.0000
vt 0.9130 0.0505 0.0000
vt 0.8989 0.0505 0.0000
vt 0.8817 0.0505 0.0000
vt 0.8634 0.0505 0.0000
vt 0.8461 0.0505 0.0000
vt 0.8321 0.0505 0.0000
vt 0.8229 0.0505 0.0000
vt 0.8197 0.0505 0.0000
vt 0.9094 0.0343 0.0000
vt 0.9117 0.0343 0.0000
vt 0.9026 0.0343 0.0000
vt 0.8921 0.0343 0.0000
vt 0.8793 0.0343 0.0000
vt 0.8657 0.0343 0.0000
vt 0.8529 0.0343 0.0000
vt 0.8425 0.0343 0.0000
vt 0.8357 0.0343 0.0000
vt 0.8333 0.0343 0.0000
vt 0.8921 0.0237 0.0000
vt 0.8934 0.0237 0.0000
vt 0.8885 0.0237 0.0000
vt 0.8830 0.0237 0.0000
vt 0.8762 0.0237 0.0000
vt 0.8689 0.0237 0.0000
vt 0.8621 0.0237 0.0000
vt 0.8566 0.0237 0.0000
vt 0.8529 0.0237 0.0000
vt 0.8517 0.0237 0.0000
vt 0.8725 0.0200 0.0000
# 51 texture coords

g Sphere001
usemtl wire_177148027
s 1
f 17/33/9 18/34/10 19/35/11 
f 19/35/11 20/36/12 17/33/9 
f 21/37/13 22/38/14 18/34/10 
f 18/34/10 17/33/9 21/37/13 
f 23/39/15 24/40/16 22/38/14 
f 22/38/14 21/37/13 23/39/15 
f 25/41/17 26/42/18 24/40/16 
f 24/40/16 23/39/15 25/41/17 
f 27/43/19 28/44/20 26/42/18 
f 26/42/18 25/41/17 27/43/19 
f 29/45/21 30/46/22 28/44/20 
f 28/44/20 27/43/19 29/45/21 
f 31/47/23 32/48/24 30/46/22 
f 30/46/22 29/45/21 31/47/23 
f 33/49/25 34/50/26 32/48/24 
f 32/48/24 31/47/23 33/49/25 
f 35/51/27 36/52/28 34/50/26 
f 34/50/26 33/49/25 35/51/27 
f 37/49/29 38/50/30 36/52/28 
f 36/52/28 35/51/27 37/49/29 
f 39/47/31 40/48/32 38/50/30 
f 38/50/30 37/49/29 39/47/31 
f 41/45/33 42/46/34 40/48/32 
f 40/48/32 39/47/31 41/45/33 
f 43/43/35 44/44/36 42/46/34 
f 42/46/34 41/45/33 43/43/35 
f 45/41/37 46/42/38 44/44/36 
f 44/44/36 43/43/35 45/41/37 
f 47/39/39 48/40/40 46/42/38 
f 46/42/38 45/41/37 47/39/39 
f 49/37/41 50/38/42 48/40/40 
f 48/40/40 47/39/39 49/37/41 
f 51/33/43 52/34/44 50/38/42 
f 50/38/42 49/37/41 51/33/43 
f 20/36/12 19/35/11 52/34/44 
f 52/34/44 51/33/43 20/36/12 
f 53/53/45 17/33/9 20/36/12 
f 20/36/12 54/54/46 53/53/45 
f 55/55/47 21/37/13 17/33/9 
f 17/33/9 53/53/45 55/55/47 
f 56/56/48 23/39/15 21/37/13 
f 21/37/13 55/55/47 56/56/48 
f 57/57/49 25/41/17 23/39/15 
f 23/39/15 56/56/48 57/57/49 
f 58/58/50 27/43/19 25/41/17 
f 25/41/17 57/57/49 58/58/50 
f 59/59/51 29/45/21 27/43/19 
f 27/43/19 58/58/50 59/59/51 
f 60/60/52 31/47/23 29/45/21 
f 29/45/21 59/59/51 60/60/52 
f 61/61/53 33/49/25 31/47/23 
f 31/47/23 60/60/52 61/61/53 
f 62/62/54 35/51/27 33/49/25 
f 33/49/25 61/61/53 62/62/54 
f 63/61/55 37/49/29 35/51/27 
f 35/51/27 62/62/54 63/61/55 
f 64/60/56 39/47/31 37/49/29 
f 37/49/29 63/61/55 64/60/56 
f 65/59/57 41/45/33 39/47/31 
f 39/47/31 64/60/56 65/59/57 
f 66/58/58 43/43/35 41/45/33 
f 41/45/33 65/59/57 66/58/58 
f 67/57/59 45/41/37 43/43/35 
f 43/43/35 66/58/58 67/57/59 
f 68/56/60 47/39/39 45/41/37 
f 45/41/37 67/57/59 68/56/60 
f 69/55/61 49/37/41 47/39/39 
f 47/39/39 68/56/60 69/55/61 
f 70/53/62 51/33/43 49/37/41 
f 49/37/41 69/55/61 70/53/62 
f 54/54/46 20/36/12 51/33/43 
f 51/33/43 70/53/62 54/54/46 
f 71/63/63 53/53/45 54/54/46 
f 54/54/46 72/64/64 71/63/63 
f 73/65/65 55/55/47 53/53/45 
f 53/53/45 71/63/63 73/65/65 
f 74/66/66 56/56/48 55/55/47 
f 55/55/47 73/65/65 74/66/66 
f 75/67/67 57/57/49 56/56/48 
f 56/56/48 74/66/66 75/67/67 
f 76/68/68 58/58/50 57/57/49 
f 57/57/49 75/67/67 76/68/68 
f 77/69/69 59/59/51 58/58/50 
f 58/58/50 76/68/68 77/69/69 
f 78/70/70 60/60/52 59/59/51 
f 59/59/51 77/69/69 78/70/70 
f 79/71/71 61/61/53 60/60/52 
f 60/60/52 78/70/70 79/71/71 
f 80/72/72 62/62/54 61/61/53 
f 61/61/53 79/71/71 80/72/72 
f 81/71/73 63/61/55 62/62/54 
f 62/62/54 80/72/72 81/71/73 
f 82/70/74 64/60/56 63/61/55 
f 63/61/55 81/71/73 82/70/74 
f 83/69/75 65/59/57 64/60/56 
f 64/60/56 82/70/74 83/69/75 
f 84/68/76 66/58/58 65/59/57 
f 65/59/57 83/69/75 84/68/76 
f 85/67/77 67/57/59 66/58/58 
f 66/58/58 84/68/76 85/67/77 
f 86/66/78 68/56/60 67/57/59 
f 67/57/59 85/67/77 86/66/78 
f 87/65/79 69/55/61 68/56/60 
f 68/56/60 86/66/78 87/65/79 
f 88/63/80 70/53/62 69/55/61 
f 69/55/61 87/65/79 88/63/80 
f 72/64/64 54/54/46 70/53/62 
f 70/53/62 88/63/80 72/64/64 
f 89/73/81 71/63/63 72/64/64 
f 72/64/64 90/74/82 89/73/81 
f 91/75/83 73/65/65 71/63/63 
f 71/63/63 89/73/81 91/75/83 
f 92/76/84 74/66/66 73/65/65 
f 73/65/65 91/75/83 92/76/84 
f 93/77/85 75/67/67 74/66/66 
f 74/66/66 92/76/84 93/77/85 
f 94/78/86 76/68/68 75/67/67 
f 75/67/67 93/77/85 94/78/86 
f 95/79/87 77/69/69 76/68/68 
f 76/68/68 94/78/86 95/79/87 
f 96/80/88 78/70/70 77/69/69 
f 77/69/69 95/79/87 96/80/88 
f 97/81/89 79/71/71 78/70/70 
f 78/70/70 96/80/88 97/81/89 
f 98/82/90 80/72/72 79/71/71 
f 79/71/71 97/81/89 98/82/90 
f 99/81/91 81/71/73 80/72/72 
f 80/72/72 98/82/90 99/81/91 
f 100/80/92 82/70/74 81/71/73 
f 81/71/73 99/81/91 100/80/92 
f 101/79/93 83/69/75 82/70/74 
f 82/70/74 100/80/92 101/79/93 
f 102/78/94 84/68/76 83/69/75 
f 83/69/75 101/79/93 102/78/94 
f 103/77/95 85/67/77 84/68/76 
f 84/68/76 102/78/94 103/77/95 
f 104/76/96 86/66/78 85/67/77 
f 85/67/77 103/77/95 104/76/96 
f 105/75/97 87/65/79 86/66/78 
f 86/66/78 104/76/96 105/75/97 
f 106/73/98 88/63/80 87/65/79 
f 87/65/79 105/75/97 106/73/98 
f 90/74/82 72/64/64 88/63/80 
f 88/63/80 106/73/98 90/74/82 
f 107/83/99 89/73/81 90/74/82 
f 107/83/99 91/75/83 89/73/81 
f 107/83/99 92/76/84 91/75/83 
f 107/83/99 93/77/85 92/76/84 
f 107/83/99 94/78/86 93/77/85 
f 107/83/99 95/79/87 94/78/86 
f 107/83/99 96/80/88 95/79/87 
f 107/83/99 97/81/89 96/80/88 
f 107/83/99 98/82/90 97/81/89 
f 107/83/99 99/81/91 98/82/90 
f 107/83/99 100/80/92 99/81/91 
f 107/83/99 101/79/93 100/80/92 
f 107/83/99 102/78/94 101/79/93 
f 107/83/99 103/77/95 102/78/94 
f 107/83/99 104/76/96 103/77/95 
f 107/83/99 105/75/97 104/76/96 
f 107/83/99 106/73/98 105/75/97 
f 107/83/99 90/74/82 106/73/98 
# 162 faces

