# 3ds Max Wavefront OBJ Exporter v0.97b - (c)2007 guruware
# File Created: 08.07.2014 15:54:43

mtllib insat3d.mtl

#
# object Box001
#

v  -7.5000 0.0000 5.0000
v  -7.5000 0.0000 -5.0000
v  7.5000 0.0000 -5.0000
v  7.5000 0.0000 5.0000
v  -7.5000 12.0000 5.0000
v  7.5000 12.0000 5.0000
v  7.5000 12.0000 -5.0000
v  -7.5000 12.0000 -5.0000
# 8 vertices

vn 0.0000 -1.0000 -0.0000
vn 0.0000 1.0000 -0.0000
vn 0.0000 0.0000 1.0000
vn 1.0000 0.0000 -0.0000
vn 0.0000 0.0000 -1.0000
vn -1.0000 0.0000 -0.0000
# 6 vertex normals

vt 0.3756 0.6018 0.0000
vt 0.3756 0.3756 0.0000
vt 0.7148 0.3756 0.0000
vt 0.7148 0.6018 0.0000
vt 0.0200 0.6634 0.0000
vt 0.3592 0.6634 0.0000
vt 0.3592 0.8896 0.0000
vt 0.0200 0.8896 0.0000
vt 0.0200 0.3756 0.0000
vt 0.3592 0.3756 0.0000
vt 0.3592 0.6470 0.0000
vt 0.0200 0.6470 0.0000
vt 0.3756 0.6182 0.0000
vt 0.6018 0.6182 0.0000
vt 0.6018 0.8896 0.0000
vt 0.3756 0.8896 0.0000
vt 0.4887 0.0200 0.0000
vt 0.8279 0.0200 0.0000
vt 0.8279 0.2913 0.0000
vt 0.4887 0.2913 0.0000
vt 0.6182 0.6182 0.0000
vt 0.8443 0.6182 0.0000
vt 0.8443 0.8896 0.0000
vt 0.6182 0.8896 0.0000
# 24 texture coords

g Box001
usemtl wire_057008136
s 2
f 1/1/1 2/2/1 3/3/1 
f 3/3/1 4/4/1 1/1/1 
s 4
f 5/5/2 6/6/2 7/7/2 
f 7/7/2 8/8/2 5/5/2 
s 8
f 1/9/3 4/10/3 6/11/3 
f 6/11/3 5/12/3 1/9/3 
s 16
f 4/13/4 3/14/4 7/15/4 
f 7/15/4 6/16/4 4/13/4 
s 32
f 3/17/5 2/18/5 8/19/5 
f 8/19/5 7/20/5 3/17/5 
s 64
f 2/21/6 1/22/6 5/23/6 
f 5/23/6 8/24/6 2/21/6 
# 12 faces

#
# object Plane001
#

v  -10.0000 29.5000 0.0000
v  -10.0000 14.5000 -0.0000
v  10.0000 29.5000 0.0000
v  10.0000 14.5000 -0.0000
# 4 vertices

vn 0.0000 -0.0000 1.0000
# 1 vertex normals

vt 0.0200 0.3592 0.0000
vt 0.0200 0.0200 0.0000
vt 0.4722 0.3592 0.0000
vt 0.4722 0.0200 0.0000
# 4 texture coords

g Plane001
usemtl wire_196088225
s 1
f 9/25/7 10/26/7 11/27/7 
f 12/28/7 11/27/7 10/26/7 
# 2 faces

#
# object Cylinder001
#

v  7.0000 8.5000 2.0000
v  6.5981 10.0000 2.0000
v  6.5981 10.0000 7.0000
v  7.0000 8.5000 7.0000
v  5.5000 11.0981 2.0000
v  5.5000 11.0981 7.0000
v  4.0000 11.5000 2.0000
v  4.0000 11.5000 7.0000
v  2.5000 11.0981 2.0000
v  2.5000 11.0981 7.0000
v  1.4019 10.0000 2.0000
v  1.4019 10.0000 7.0000
v  1.0000 8.5000 2.0000
v  1.0000 8.5000 7.0000
v  1.4019 7.0000 2.0000
v  1.4019 7.0000 7.0000
v  2.5000 5.9019 2.0000
v  2.5000 5.9019 7.0000
v  4.0000 5.5000 2.0000
v  4.0000 5.5000 7.0000
v  5.5000 5.9019 2.0000
v  5.5000 5.9019 7.0000
v  6.5981 7.0000 2.0000
v  6.5981 7.0000 7.0000
# 24 vertices

vn 1.0000 -0.0000 -0.0000
vn 0.8660 0.5000 0.0000
vn 0.5000 0.8660 0.0000
vn -0.0000 1.0000 0.0000
vn -0.5000 0.8660 0.0000
vn -0.8660 0.5000 0.0000
vn -1.0000 0.0000 0.0000
vn -0.8660 -0.5000 -0.0000
vn -0.5000 -0.8660 -0.0000
vn -0.0000 -1.0000 -0.0000
vn 0.5000 -0.8660 -0.0000
vn 0.8660 -0.5000 -0.0000
# 12 vertex normals

vt 0.9122 0.1721 0.0000
vt 0.9461 0.1721 0.0000
vt 0.9461 0.2852 0.0000
vt 0.9122 0.2852 0.0000
vt 0.9709 0.1721 0.0000
vt 0.9709 0.2852 0.0000
vt 0.9800 0.1721 0.0000
vt 0.9800 0.2852 0.0000
vt 0.8782 0.1721 0.0000
vt 0.8782 0.2852 0.0000
vt 0.8534 0.1721 0.0000
vt 0.8534 0.2852 0.0000
vt 0.8443 0.1721 0.0000
vt 0.8443 0.2852 0.0000
# 14 texture coords

g Cylinder001
usemtl wire_228214153
s 8
f 13/29/8 14/30/9 15/31/9 
f 15/31/9 16/32/8 13/29/8 
f 14/30/9 17/33/10 18/34/10 
f 18/34/10 15/31/9 14/30/9 
f 17/33/10 19/35/11 20/36/11 
f 20/36/11 18/34/10 17/33/10 
f 19/35/11 21/33/12 22/34/12 
f 22/34/12 20/36/11 19/35/11 
f 21/33/12 23/30/13 24/31/13 
f 24/31/13 22/34/12 21/33/12 
f 23/30/13 25/29/14 26/32/14 
f 26/32/14 24/31/13 23/30/13 
f 25/29/14 27/37/15 28/38/15 
f 28/38/15 26/32/14 25/29/14 
f 27/37/15 29/39/16 30/40/16 
f 30/40/16 28/38/15 27/37/15 
f 29/39/16 31/41/17 32/42/17 
f 32/42/17 30/40/16 29/39/16 
f 31/41/17 33/39/18 34/40/18 
f 34/40/18 32/42/17 31/41/17 
f 33/39/18 35/37/19 36/38/19 
f 36/38/19 34/40/18 33/39/18 
f 35/37/19 13/29/8 16/32/8 
f 16/32/8 36/38/19 35/37/19 
# 24 faces

#
# object Cone001
#

v  0.5000 8.2000 6.5000
v  0.0981 6.7000 6.5000
v  -2.5000 8.2000 5.0000
v  -1.0000 5.6019 6.5000
v  -2.5000 5.2000 6.5000
v  -4.0000 5.6019 6.5000
v  -5.0981 6.7000 6.5000
v  -5.5000 8.2000 6.5000
v  -5.0981 9.7000 6.5000
v  -4.0000 10.7981 6.5000
v  -2.5000 11.2000 6.5000
v  -1.0000 10.7981 6.5000
v  0.0981 9.7000 6.5000
# 13 vertices

vn 0.4472 -0.0000 -0.8944
vn 0.3873 -0.2236 -0.8944
vn 0.4440 -0.1190 -0.8881
vn 0.4440 0.1190 -0.8881
vn 0.2236 -0.3873 -0.8944
vn 0.3251 -0.3251 -0.8881
vn -0.0000 -0.4472 -0.8944
vn 0.1190 -0.4440 -0.8881
vn -0.2236 -0.3873 -0.8944
vn -0.1190 -0.4440 -0.8881
vn -0.3873 -0.2236 -0.8944
vn -0.3251 -0.3251 -0.8881
vn -0.4472 -0.0000 -0.8944
vn -0.4440 -0.1190 -0.8881
vn -0.3873 0.2236 -0.8944
vn -0.4440 0.1190 -0.8881
vn -0.2236 0.3873 -0.8944
vn -0.3251 0.3251 -0.8881
vn -0.0000 0.4472 -0.8944
vn -0.1190 0.4440 -0.8881
vn 0.2236 0.3873 -0.8944
vn 0.1190 0.4440 -0.8881
vn 0.3873 0.2236 -0.8944
vn 0.3251 0.3251 -0.8881
vn 1.0000 0.0000 -0.0000
# 25 vertex normals

vt 0.9800 0.0878 0.0000
vt 0.9709 0.1218 0.0000
vt 0.9122 0.0878 0.0000
vt 0.9461 0.1466 0.0000
vt 0.9122 0.1557 0.0000
vt 0.8782 0.1466 0.0000
vt 0.8534 0.1218 0.0000
vt 0.8443 0.0878 0.0000
vt 0.8534 0.0539 0.0000
vt 0.8782 0.0291 0.0000
vt 0.9122 0.0200 0.0000
vt 0.9461 0.0291 0.0000
vt 0.9709 0.0539 0.0000
vt 0.0200 0.9060 0.0000
# 14 texture coords

g Cone001
usemtl wire_006135058
s 8
f 37/43/20 38/44/21 39/45/22 
f 39/45/22 39/45/23 37/43/20 
f 38/44/21 40/46/24 39/45/25 
f 39/45/25 39/45/22 38/44/21 
f 40/46/24 41/47/26 39/45/27 
f 39/45/27 39/45/25 40/46/24 
f 41/47/26 42/48/28 39/45/29 
f 39/45/29 39/45/27 41/47/26 
f 42/48/28 43/49/30 39/45/31 
f 39/45/31 39/45/29 42/48/28 
f 43/49/30 44/50/32 39/45/33 
f 39/45/33 39/45/31 43/49/30 
f 44/50/32 45/51/34 39/45/35 
f 39/45/35 39/45/33 44/50/32 
f 45/51/34 46/52/36 39/45/37 
f 39/45/37 39/45/35 45/51/34 
f 46/52/36 47/53/38 39/45/39 
f 39/45/39 39/45/37 46/52/36 
f 47/53/38 48/54/40 39/45/41 
f 39/45/41 39/45/39 47/53/38 
f 48/54/40 49/55/42 39/45/43 
f 39/45/43 39/45/41 48/54/40 
f 49/55/42 37/43/20 39/45/23 
f 39/45/23 39/45/43 49/55/42 
s 1
f 39/56/44 39/56/44 39/56/44 
f 39/56/44 39/56/44 39/56/44 
f 39/56/44 39/56/44 39/56/44 
f 39/56/44 39/56/44 39/56/44 
f 39/56/44 39/56/44 39/56/44 
f 39/56/44 39/56/44 39/56/44 
f 39/56/44 39/56/44 39/56/44 
f 39/56/44 39/56/44 39/56/44 
f 39/56/44 39/56/44 39/56/44 
f 39/56/44 39/56/44 39/56/44 
# 34 faces

#
# object Cone002
#

v  -7.5000 9.0000 -0.0000
v  -7.5000 6.9271 -2.8532
v  -9.0000 6.0000 -0.0000
v  -7.5000 3.5729 -1.7634
v  -7.5000 3.5729 1.7634
v  -7.5000 6.9271 2.8532
# 6 vertices

vn -0.8944 0.4472 -0.0000
vn -0.8944 0.1382 -0.4253
vn -0.8507 0.4253 -0.3090
vn -0.8507 0.4253 0.3090
vn -0.8944 -0.3618 -0.2629
vn -0.8507 -0.1625 -0.5000
vn -0.8944 -0.3618 0.2629
vn -0.8507 -0.5257 0.0000
vn -0.8944 0.1382 0.4253
vn -0.8507 -0.1625 0.5000
vn -0.0000 1.0000 -0.0000
# 11 vertex normals

vt 0.8540 0.4402 0.0000
vt 0.8071 0.5047 0.0000
vt 0.7861 0.4402 0.0000
vt 0.7313 0.4800 0.0000
vt 0.7313 0.4003 0.0000
vt 0.8071 0.3756 0.0000
vt 0.4887 0.3078 0.0000
# 7 texture coords

g Cone002
usemtl wire_177028149
s 8
f 50/57/45 51/58/46 52/59/47 
f 52/59/47 52/59/48 50/57/45 
f 51/58/46 53/60/49 52/59/50 
f 52/59/50 52/59/47 51/58/46 
f 53/60/49 54/61/51 52/59/52 
f 52/59/52 52/59/50 53/60/49 
f 54/61/51 55/62/53 52/59/54 
f 52/59/54 52/59/52 54/61/51 
f 55/62/53 50/57/45 52/59/48 
f 52/59/48 52/59/54 55/62/53 
s 1
f 52/63/55 52/63/55 52/63/55 
f 52/63/55 52/63/55 52/63/55 
f 52/63/55 52/63/55 52/63/55 
# 13 faces

#
# object Cylinder002
#

v  7.2500 5.0000 -0.0000
v  7.2500 6.0000 -1.7321
v  12.2500 6.0000 -1.7321
v  12.2500 5.0000 -0.0000
v  7.2500 8.0000 -1.7321
v  12.2500 8.0000 -1.7321
v  7.2500 9.0000 0.0000
v  12.2500 9.0000 0.0000
v  7.2500 8.0000 1.7321
v  12.2500 8.0000 1.7321
v  7.2500 6.0000 1.7321
v  12.2500 6.0000 1.7321
# 12 vertices

vn -0.0000 -1.0000 0.0000
vn -0.0000 -0.5000 -0.8660
vn 0.0000 0.5000 -0.8660
vn 0.0000 1.0000 0.0000
vn 0.0000 0.5000 0.8660
vn -0.0000 -0.5000 0.8660
# 6 vertex normals

vt 0.9000 0.6182 0.0000
vt 0.9391 0.6182 0.0000
vt 0.9391 0.7313 0.0000
vt 0.9000 0.7313 0.0000
vt 0.8608 0.6182 0.0000
vt 0.8608 0.7313 0.0000
# 6 texture coords

g Cylinder002
usemtl wire_006135058
s 8
f 56/64/56 57/65/57 58/66/57 
f 58/66/57 59/67/56 56/64/56 
f 57/65/57 60/65/58 61/66/58 
f 61/66/58 58/66/57 57/65/57 
f 60/65/58 62/64/59 63/67/59 
f 63/67/59 61/66/58 60/65/58 
f 62/64/59 64/68/60 65/69/60 
f 65/69/60 63/67/59 62/64/59 
f 64/68/60 66/68/61 67/69/61 
f 67/69/61 65/69/60 64/68/60 
f 66/68/61 56/64/56 59/67/56 
f 59/67/56 67/69/61 66/68/61 
# 12 faces

#
# object Plane002
#

v  -1.0000 14.5000 0.0000
v  -1.0000 9.5000 -0.0000
v  1.0000 14.5000 0.0000
v  1.0000 9.5000 -0.0000
# 4 vertices

vn 0.0000 -0.0000 1.0000
# 1 vertex normals

vt 0.8704 0.4887 0.0000
vt 0.8704 0.3756 0.0000
vt 0.9157 0.4887 0.0000
vt 0.9157 0.3756 0.0000
# 4 texture coords

g Plane002
usemtl wire_213154229
s 1
f 68/70/62 69/71/62 70/72/62 
f 71/73/62 70/72/62 69/71/62 
# 2 faces

