# 3ds Max Wavefront OBJ Exporter v0.97b - (c)2007 guruware
# File Created: 11.07.2014 13:41:12

mtllib landsat8.mtl

#
# object Cylinder001
#

v  0.0000 7.5000 -0.0000
v  6.4952 7.5000 -3.7500
v  7.5000 7.5000 -0.0000
v  3.7500 7.5000 -6.4952
v  -0.0000 7.5000 -7.5000
v  -3.7500 7.5000 -6.4952
v  -6.4952 7.5000 -3.7500
v  -7.5000 7.5000 -0.0000
v  -6.4952 7.5000 3.7500
v  -3.7500 7.5000 6.4952
v  -0.0000 7.5000 7.5000
v  3.7500 7.5000 6.4952
v  6.4952 7.5000 3.7500
v  6.4952 27.5000 -3.7500
v  7.5000 27.5000 -0.0000
v  3.7500 27.5000 -6.4952
v  -0.0000 27.5000 -7.5000
v  -3.7500 27.5000 -6.4952
v  -6.4952 27.5000 -3.7500
v  -7.5000 27.5000 -0.0000
v  -6.4952 27.5000 3.7500
v  -3.7500 27.5000 6.4952
v  -0.0000 27.5000 7.5000
v  3.7500 27.5000 6.4952
v  6.4952 27.5000 3.7500
v  0.0000 27.5000 -0.0000
# 26 vertices

vn 0.0000 -1.0000 -0.0000
vn 1.0000 0.0000 0.0000
vn 0.8660 0.0000 -0.5000
vn 0.5000 0.0000 -0.8660
vn 0.0000 0.0000 -1.0000
vn -0.5000 0.0000 -0.8660
vn -0.8660 0.0000 -0.5000
vn -1.0000 0.0000 -0.0000
vn -0.8660 0.0000 0.5000
vn -0.5000 0.0000 0.8660
vn -0.0000 0.0000 1.0000
vn 0.5000 0.0000 0.8660
vn 0.8660 0.0000 0.5000
vn 0.0000 1.0000 -0.0000
# 14 vertex normals

vt 0.5243 0.3460 0.0000
vt 0.6433 0.3150 0.0000
vt 0.6429 0.3786 0.0000
vt 0.6119 0.2596 0.0000
vt 0.5570 0.2273 0.0000
vt 0.4933 0.2269 0.0000
vt 0.4379 0.2583 0.0000
vt 0.4057 0.3133 0.0000
vt 0.4052 0.3769 0.0000
vt 0.4367 0.4323 0.0000
vt 0.4916 0.4646 0.0000
vt 0.5553 0.4650 0.0000
vt 0.6107 0.4336 0.0000
vt 0.0200 0.3334 0.0000
vt 0.3481 0.2719 0.0000
vt 0.3481 0.3334 0.0000
vt 0.0200 0.2719 0.0000
vt 0.3481 0.2269 0.0000
vt 0.0200 0.2269 0.0000
vt 0.5550 0.1430 0.0000
vt 0.8831 0.0815 0.0000
vt 0.8831 0.1430 0.0000
vt 0.5550 0.0815 0.0000
vt 0.8831 0.0200 0.0000
vt 0.5550 0.0200 0.0000
vt 0.0200 0.7102 0.0000
vt 0.3481 0.6652 0.0000
vt 0.3481 0.7102 0.0000
vt 0.0200 0.6652 0.0000
vt 0.3481 0.6036 0.0000
vt 0.0200 0.6036 0.0000
vt 0.3481 0.5421 0.0000
vt 0.0200 0.5421 0.0000
vt 0.3481 0.4971 0.0000
vt 0.0200 0.4971 0.0000
vt 0.0200 0.8903 0.0000
vt 0.3481 0.8288 0.0000
vt 0.3481 0.8903 0.0000
vt 0.0200 0.8288 0.0000
vt 0.3481 0.7673 0.0000
vt 0.0200 0.7673 0.0000
vt 0.0200 0.4400 0.0000
vt 0.3481 0.3950 0.0000
vt 0.3481 0.4400 0.0000
vt 0.0200 0.3950 0.0000
vt 0.5243 0.6162 0.0000
vt 0.6429 0.6489 0.0000
vt 0.6107 0.7038 0.0000
vt 0.5553 0.7352 0.0000
vt 0.4916 0.7348 0.0000
vt 0.4367 0.7025 0.0000
vt 0.4052 0.6472 0.0000
vt 0.4057 0.5835 0.0000
vt 0.4379 0.5285 0.0000
vt 0.4933 0.4971 0.0000
vt 0.5570 0.4975 0.0000
vt 0.6119 0.5298 0.0000
vt 0.6433 0.5852 0.0000
# 58 texture coords

g Cylinder001
usemtl wire_088144225
s 1
f 1/1/1 2/2/1 3/3/1 
f 1/1/1 4/4/1 2/2/1 
f 1/1/1 5/5/1 4/4/1 
f 1/1/1 6/6/1 5/5/1 
f 1/1/1 7/7/1 6/6/1 
f 1/1/1 8/8/1 7/7/1 
f 1/1/1 9/9/1 8/8/1 
f 1/1/1 10/10/1 9/9/1 
f 1/1/1 11/11/1 10/10/1 
f 1/1/1 12/12/1 11/11/1 
f 1/1/1 13/13/1 12/12/1 
f 1/1/1 3/3/1 13/13/1 
s 8
f 3/14/2 14/15/3 15/16/2 
f 3/14/2 2/17/3 14/15/3 
f 2/17/3 16/18/4 14/15/3 
f 2/17/3 4/19/4 16/18/4 
f 4/20/4 17/21/5 16/22/4 
f 4/20/4 5/23/5 17/21/5 
f 5/23/5 18/24/6 17/21/5 
f 5/23/5 6/25/6 18/24/6 
f 6/26/6 19/27/7 18/28/6 
f 6/26/6 7/29/7 19/27/7 
f 7/29/7 20/30/8 19/27/7 
f 7/29/7 8/31/8 20/30/8 
f 8/31/8 21/32/9 20/30/8 
f 8/31/8 9/33/9 21/32/9 
f 9/33/9 22/34/10 21/32/9 
f 9/33/9 10/35/10 22/34/10 
f 10/36/10 23/37/11 22/38/10 
f 10/36/10 11/39/11 23/37/11 
f 11/39/11 24/40/12 23/37/11 
f 11/39/11 12/41/12 24/40/12 
f 12/42/12 25/43/13 24/44/12 
f 12/42/12 13/45/13 25/43/13 
f 13/45/13 15/16/2 25/43/13 
f 13/45/13 3/14/2 15/16/2 
s 1
f 26/46/14 15/47/14 14/48/14 
f 26/46/14 14/48/14 16/49/14 
f 26/46/14 16/49/14 17/50/14 
f 26/46/14 17/50/14 18/51/14 
f 26/46/14 18/51/14 19/52/14 
f 26/46/14 19/52/14 20/53/14 
f 26/46/14 20/53/14 21/54/14 
f 26/46/14 21/54/14 22/55/14 
f 26/46/14 22/55/14 23/56/14 
f 26/46/14 23/56/14 24/57/14 
f 26/46/14 24/57/14 25/58/14 
f 26/46/14 25/58/14 15/47/14 
# 48 faces

#
# object Box001
#

v  -2.5000 1.0000 2.5000
v  -2.5000 1.0000 -2.5000
v  2.5000 1.0000 -2.5000
v  2.5000 1.0000 2.5000
v  2.5000 7.5000 2.5000
v  -2.5000 7.5000 2.5000
v  2.5000 7.5000 -2.5000
v  -2.5000 7.5000 -2.5000
# 8 vertices

vn 0.0000 -1.0000 -0.0000
vn 0.0000 0.0000 1.0000
vn 1.0000 0.0000 -0.0000
vn 0.0000 0.0000 -1.0000
vn -1.0000 0.0000 -0.0000
# 5 vertex normals

vt 0.8214 0.4480 0.0000
vt 0.8214 0.3660 0.0000
vt 0.9034 0.3660 0.0000
vt 0.9034 0.4480 0.0000
vt 0.4052 0.8315 0.0000
vt 0.4052 0.7495 0.0000
vt 0.5118 0.7495 0.0000
vt 0.5118 0.8315 0.0000
vt 0.6576 0.5791 0.0000
vt 0.6576 0.4971 0.0000
vt 0.7643 0.4971 0.0000
vt 0.7643 0.5791 0.0000
vt 0.6576 0.3089 0.0000
vt 0.6576 0.2269 0.0000
vt 0.7643 0.2269 0.0000
vt 0.7643 0.3089 0.0000
vt 0.8214 0.3089 0.0000
vt 0.8214 0.2269 0.0000
vt 0.9280 0.2269 0.0000
vt 0.9280 0.3089 0.0000
# 20 texture coords

g Box001
usemtl wire_087225087
s 2
f 27/59/15 28/60/15 29/61/15 
f 29/61/15 30/62/15 27/59/15 
s 8
f 27/63/16 30/64/16 31/65/16 
f 31/65/16 32/66/16 27/63/16 
s 16
f 30/67/17 29/68/17 33/69/17 
f 33/69/17 31/70/17 30/67/17 
s 32
f 29/71/18 28/72/18 34/73/18 
f 34/73/18 33/74/18 29/71/18 
s 64
f 28/75/19 27/76/19 32/77/19 
f 32/77/19 34/78/19 28/75/19 
# 10 faces

#
# object Prism001
#

v  -6.7500 7.5000 3.0104
v  -5.0000 7.5000 2.0000
v  -8.5000 7.5000 2.0000
v  -6.7500 7.5000 5.0311
v  -5.0000 0.0000 2.0000
v  -8.5000 0.0000 2.0000
v  -6.7500 0.0000 5.0311
v  -6.7500 0.0000 3.0104
# 8 vertices

vn 0.0000 1.0000 -0.0000
vn -0.0000 0.0000 -1.0000
vn -0.8660 0.0000 0.5000
vn 0.8660 0.0000 0.5000
vn 0.0000 -1.0000 -0.0000
# 5 vertex normals

vt 0.8665 0.7852 0.0000
vt 0.8952 0.8018 0.0000
vt 0.8378 0.8018 0.0000
vt 0.8665 0.7521 0.0000
vt 0.9444 0.5545 0.0000
vt 0.8214 0.5545 0.0000
vt 0.8214 0.4971 0.0000
vt 0.9444 0.4971 0.0000
vt 0.7807 0.8018 0.0000
vt 0.6576 0.8018 0.0000
vt 0.6576 0.7521 0.0000
vt 0.7807 0.7521 0.0000
vt 0.9591 0.6860 0.0000
vt 0.8360 0.6860 0.0000
vt 0.8360 0.6362 0.0000
vt 0.9591 0.6362 0.0000
vt 0.9751 0.3660 0.0000
vt 0.9464 0.3826 0.0000
vt 0.9177 0.3660 0.0000
vt 0.9464 0.4157 0.0000
# 20 texture coords

g Prism001
usemtl wire_225143087
s 1
f 35/79/20 36/80/20 37/81/20 
f 35/79/20 37/81/20 38/82/20 
f 35/79/20 38/82/20 36/80/20 
s 2
f 36/83/21 39/84/21 40/85/21 
f 36/83/21 40/85/21 37/86/21 
s 4
f 37/87/22 40/88/22 41/89/22 
f 37/87/22 41/89/22 38/90/22 
s 8
f 38/91/23 41/92/23 39/93/23 
f 38/91/23 39/93/23 36/94/23 
s 1
f 39/95/24 42/96/24 40/97/24 
f 40/97/24 42/96/24 41/98/24 
f 41/98/24 42/96/24 39/95/24 
# 12 faces

#
# object ChamferBox001
#

v  -1.2525 2.4950 2.6558
v  -1.2525 7.5000 2.2743
v  -0.0050 7.5000 2.0649
v  -0.0050 2.4950 2.3793
v  -2.1657 2.4950 3.4111
v  -2.1657 7.5000 2.8466
v  -2.5000 2.4950 4.4429
v  -2.5000 7.5000 3.6283
v  -2.5000 2.4950 4.4512
v  -2.5000 7.5000 3.6346
v  -2.1657 2.4950 5.4830
v  -2.1657 7.5000 4.4163
v  -1.2525 2.4950 6.2383
v  -1.2525 7.5000 4.9886
v  -0.0050 2.4950 6.5148
v  -0.0050 7.5000 5.1980
v  0.0050 2.4950 6.5148
v  0.0050 7.5000 5.1980
v  1.2525 2.4950 6.2383
v  1.2525 7.5000 4.9886
v  2.1657 2.4950 5.4830
v  2.1657 7.5000 4.4163
v  2.5000 2.4950 4.4512
v  2.5000 7.5000 3.6346
v  2.5000 2.4950 4.4429
v  2.5000 7.5000 3.6283
v  2.1657 2.4950 3.4111
v  2.1657 7.5000 2.8466
v  1.2525 2.4950 2.6558
v  1.2525 7.5000 2.2743
v  0.0050 2.4950 2.3793
v  0.0050 7.5000 2.0649
v  -1.0854 1.2475 2.7777
v  -0.0050 1.2475 2.5359
v  -1.8763 1.2475 3.4383
v  -2.1657 1.2475 4.3407
v  -2.1657 1.2475 4.3491
v  -1.8763 1.2475 5.2515
v  -1.0854 1.2475 5.9121
v  -0.0050 1.2475 6.1539
v  0.0050 1.2475 6.1539
v  1.0854 1.2475 5.9121
v  1.8763 1.2475 5.2515
v  2.1657 1.2475 4.3491
v  2.1657 1.2475 4.3407
v  1.8763 1.2475 3.4383
v  1.0854 1.2475 2.7777
v  0.0050 1.2475 2.5359
v  -0.6287 0.3343 2.9553
v  -0.0050 0.3343 2.7882
v  -1.0854 0.3343 3.4119
v  -1.2525 0.3343 4.0357
v  -1.2525 0.3343 4.0457
v  -1.0854 0.3343 4.6694
v  -0.6287 0.3343 5.1261
v  -0.0050 0.3343 5.2932
v  0.0050 0.3343 5.2932
v  0.6288 0.3343 5.1261
v  1.0854 0.3343 4.6694
v  1.2525 0.3343 4.0457
v  1.2525 0.3343 4.0357
v  1.0854 0.3343 3.4119
v  0.6288 0.3343 2.9553
v  0.0050 0.3343 2.7882
v  -0.0050 -0.0751 3.4923
v  -0.0050 -0.0751 3.5023
v  0.0050 -0.0751 3.5023
v  0.0050 -0.0751 3.4923
# 68 vertices

vn -0.4424 -0.1044 -0.8907
vn -0.3596 -0.0840 -0.9293
vn -0.0867 -0.0680 -0.9939
vn -0.1084 -0.0932 -0.9897
vn -0.8282 -0.1254 -0.5463
vn -0.7509 -0.0823 -0.6553
vn -0.9809 -0.1308 -0.1436
vn -0.9748 -0.0358 -0.2201
vn -0.9792 -0.1190 0.1643
vn -0.9839 0.0362 0.1748
vn -0.8138 -0.0811 0.5755
vn -0.7779 0.1427 0.6120
vn -0.4287 -0.0354 0.9027
vn -0.3594 0.2310 0.9042
vn -0.1050 -0.0143 0.9944
vn -0.0815 0.2536 0.9639
vn 0.1071 -0.0121 0.9942
vn 0.0855 0.2483 0.9649
vn 0.4310 -0.0281 0.9019
vn 0.3663 0.2121 0.9060
vn 0.8131 -0.0718 0.5777
vn 0.7782 0.1214 0.6162
vn 0.9792 -0.1151 0.1671
vn 0.9831 0.0295 0.1806
vn 0.9810 -0.1333 -0.1410
vn 0.9765 -0.0252 -0.2142
vn 0.8284 -0.1341 -0.5439
vn 0.7545 -0.0591 -0.6536
vn 0.4395 -0.1128 -0.8911
vn 0.3551 -0.0653 -0.9325
vn 0.1061 -0.0957 -0.9897
vn 0.0826 -0.0625 -0.9946
vn -0.4439 -0.2716 -0.8539
vn -0.1108 -0.1978 -0.9740
vn -0.7699 -0.3950 -0.5013
vn -0.8720 -0.4713 -0.1322
vn -0.8566 -0.4985 0.1334
vn -0.7193 -0.5026 0.4795
vn -0.3876 -0.4920 0.7796
vn -0.0950 -0.4871 0.8681
vn 0.0972 -0.4889 0.8669
vn 0.3882 -0.4978 0.7756
vn 0.7155 -0.5082 0.4793
vn 0.8547 -0.5010 0.1357
vn 0.8730 -0.4702 -0.1299
vn 0.7736 -0.3877 -0.5012
vn 0.4416 -0.2583 -0.8592
vn 0.1071 -0.1941 -0.9751
vn -0.3602 -0.6372 -0.6814
vn -0.1044 -0.5937 -0.7979
vn -0.5554 -0.7475 -0.3643
vn -0.5573 -0.8260 -0.0845
vn -0.5201 -0.8515 0.0665
vn -0.4411 -0.8596 0.2580
vn -0.2473 -0.8572 0.4517
vn -0.0648 -0.8580 0.5095
vn 0.0698 -0.8558 0.5126
vn 0.2563 -0.8510 0.4583
vn 0.4477 -0.8536 0.2664
vn 0.5222 -0.8499 0.0706
vn 0.5521 -0.8301 -0.0785
vn 0.5475 -0.7615 -0.3469
vn 0.3535 -0.6486 -0.6741
vn 0.0975 -0.5982 -0.7954
vn -0.1386 -0.9616 -0.2371
vn -0.1323 -0.9875 0.0856
vn 0.1323 -0.9875 0.0856
vn 0.1386 -0.9616 -0.2371
# 68 vertex normals

vt 0.6998 0.8589 0.0000
vt 0.7819 0.8589 0.0000
vt 0.7819 0.8794 0.0000
vt 0.6998 0.8794 0.0000
vt 0.6945 0.4123 0.0000
vt 0.7771 0.4152 0.0000
vt 0.7778 0.4246 0.0000
vt 0.6955 0.4246 0.0000
vt 0.6933 0.3954 0.0000
vt 0.7761 0.4024 0.0000
vt 0.6932 0.3952 0.0000
vt 0.7761 0.4023 0.0000
vt 0.6919 0.3784 0.0000
vt 0.7752 0.3895 0.0000
vt 0.6910 0.3660 0.0000
vt 0.7744 0.3802 0.0000
vt 0.4407 0.9195 0.0000
vt 0.5228 0.9195 0.0000
vt 0.5228 0.9400 0.0000
vt 0.4407 0.9400 0.0000
vt 0.4407 0.9193 0.0000
vt 0.5228 0.9193 0.0000
vt 0.4407 0.8989 0.0000
vt 0.5228 0.8989 0.0000
vt 0.7453 0.6485 0.0000
vt 0.6617 0.6564 0.0000
vt 0.6628 0.6471 0.0000
vt 0.7467 0.6362 0.0000
vt 0.7433 0.6653 0.0000
vt 0.6602 0.6692 0.0000
vt 0.7433 0.6655 0.0000
vt 0.6602 0.6693 0.0000
vt 0.7413 0.6823 0.0000
vt 0.6587 0.6820 0.0000
vt 0.7399 0.6946 0.0000
vt 0.6576 0.6913 0.0000
vt 0.6998 0.8796 0.0000
vt 0.7819 0.8796 0.0000
vt 0.7819 0.9000 0.0000
vt 0.6998 0.9000 0.0000
vt 0.6793 0.8617 0.0000
vt 0.6793 0.8794 0.0000
vt 0.6741 0.4134 0.0000
vt 0.6749 0.4242 0.0000
vt 0.6730 0.3986 0.0000
vt 0.6730 0.3985 0.0000
vt 0.6718 0.3837 0.0000
vt 0.6710 0.3729 0.0000
vt 0.4202 0.9195 0.0000
vt 0.4202 0.9372 0.0000
vt 0.4202 0.9193 0.0000
vt 0.4202 0.9016 0.0000
vt 0.7652 0.6547 0.0000
vt 0.7664 0.6439 0.0000
vt 0.7634 0.6694 0.0000
vt 0.7634 0.6695 0.0000
vt 0.7617 0.6842 0.0000
vt 0.7605 0.6950 0.0000
vt 0.6793 0.8796 0.0000
vt 0.6793 0.8973 0.0000
vt 0.6643 0.8692 0.0000
vt 0.6643 0.8794 0.0000
vt 0.6592 0.4150 0.0000
vt 0.6598 0.4224 0.0000
vt 0.6584 0.4048 0.0000
vt 0.6584 0.4046 0.0000
vt 0.6576 0.3944 0.0000
vt 0.4052 0.9297 0.0000
vt 0.4202 0.9502 0.0000
vt 0.4052 0.9372 0.0000
vt 0.4052 0.9195 0.0000
vt 0.4052 0.9193 0.0000
vt 0.4052 0.9091 0.0000
vt 0.4052 0.9016 0.0000
vt 0.4202 0.8886 0.0000
vt 0.7777 0.6761 0.0000
vt 0.7789 0.6659 0.0000
vt 0.7777 0.6762 0.0000
vt 0.7765 0.6864 0.0000
vt 0.7757 0.6938 0.0000
vt 0.6643 0.8796 0.0000
vt 0.6643 0.8898 0.0000
vt 0.9655 0.0201 0.0000
vt 0.9624 0.0312 0.0000
vt 0.9549 0.0200 0.0000
vt 0.9457 0.0252 0.0000
vt 0.9403 0.0344 0.0000
vt 0.9624 0.0314 0.0000
vt 0.9403 0.0345 0.0000
vt 0.9402 0.0451 0.0000
vt 0.9454 0.0543 0.0000
vt 0.9546 0.0597 0.0000
vt 0.9625 0.0314 0.0000
vt 0.9547 0.0597 0.0000
vt 0.9653 0.0598 0.0000
vt 0.9745 0.0546 0.0000
vt 0.9799 0.0454 0.0000
vt 0.9626 0.0313 0.0000
vt 0.9799 0.0453 0.0000
vt 0.9800 0.0347 0.0000
vt 0.9748 0.0255 0.0000
vt 0.9656 0.0201 0.0000
vt 0.6576 0.8794 0.0000
vt 0.6576 0.8796 0.0000
# 104 texture coords

g ChamferBox001
usemtl wire_154154229
s 1
f 43/99/25 44/100/26 45/101/27 
f 45/101/27 46/102/28 43/99/25 
f 47/103/29 48/104/30 44/105/26 
f 44/105/26 43/106/25 47/103/29 
f 49/107/31 50/108/32 48/104/30 
f 48/104/30 47/103/29 49/107/31 
f 51/109/33 52/110/34 50/108/32 
f 50/108/32 49/107/31 51/109/33 
f 53/111/35 54/112/36 52/110/34 
f 52/110/34 51/109/33 53/111/35 
f 55/113/37 56/114/38 54/112/36 
f 54/112/36 53/111/35 55/113/37 
f 57/115/39 58/116/40 56/117/38 
f 56/117/38 55/118/37 57/115/39 
f 59/119/41 60/120/42 58/116/40 
f 58/116/40 57/115/39 59/119/41 
f 61/121/43 62/122/44 60/120/42 
f 60/120/42 59/119/41 61/121/43 
f 63/123/45 64/124/46 62/125/44 
f 62/125/44 61/126/43 63/123/45 
f 65/127/47 66/128/48 64/124/46 
f 64/124/46 63/123/45 65/127/47 
f 67/129/49 68/130/50 66/128/48 
f 66/128/48 65/127/47 67/129/49 
f 69/131/51 70/132/52 68/130/50 
f 68/130/50 67/129/49 69/131/51 
f 71/133/53 72/134/54 70/132/52 
f 70/132/52 69/131/51 71/133/53 
f 73/135/55 74/136/56 72/137/54 
f 72/137/54 71/138/53 73/135/55 
f 46/102/28 45/101/27 74/136/56 
f 74/136/56 73/135/55 46/102/28 
f 75/139/57 43/99/25 46/102/28 
f 46/102/28 76/140/58 75/139/57 
f 77/141/59 47/103/29 43/106/25 
f 43/106/25 75/142/57 77/141/59 
f 78/143/60 49/107/31 47/103/29 
f 47/103/29 77/141/59 78/143/60 
f 79/144/61 51/109/33 49/107/31 
f 49/107/31 78/143/60 79/144/61 
f 80/145/62 53/111/35 51/109/33 
f 51/109/33 79/144/61 80/145/62 
f 81/146/63 55/113/37 53/111/35 
f 53/111/35 80/145/62 81/146/63 
f 82/147/64 57/115/39 55/118/37 
f 55/118/37 81/148/63 82/147/64 
f 83/149/65 59/119/41 57/115/39 
f 57/115/39 82/147/64 83/149/65 
f 84/150/66 61/121/43 59/119/41 
f 59/119/41 83/149/65 84/150/66 
f 85/151/67 63/123/45 61/126/43 
f 61/126/43 84/152/66 85/151/67 
f 86/153/68 65/127/47 63/123/45 
f 63/123/45 85/151/67 86/153/68 
f 87/154/69 67/129/49 65/127/47 
f 65/127/47 86/153/68 87/154/69 
f 88/155/70 69/131/51 67/129/49 
f 67/129/49 87/154/69 88/155/70 
f 89/156/71 71/133/53 69/131/51 
f 69/131/51 88/155/70 89/156/71 
f 90/157/72 73/135/55 71/138/53 
f 71/138/53 89/158/71 90/157/72 
f 76/140/58 46/102/28 73/135/55 
f 73/135/55 90/157/72 76/140/58 
f 91/159/73 75/139/57 76/140/58 
f 76/140/58 92/160/74 91/159/73 
f 93/161/75 77/141/59 75/142/57 
f 75/142/57 91/162/73 93/161/75 
f 94/163/76 78/143/60 77/141/59 
f 77/141/59 93/161/75 94/163/76 
f 95/164/77 79/144/61 78/143/60 
f 78/143/60 94/163/76 95/164/77 
f 96/165/78 80/145/62 79/144/61 
f 79/144/61 95/164/77 96/165/78 
f 97/166/79 81/148/63 80/167/62 
f 80/167/62 96/168/78 97/166/79 
f 98/169/80 82/147/64 81/148/63 
f 81/148/63 97/166/79 98/169/80 
f 99/170/81 83/149/65 82/147/64 
f 82/147/64 98/169/80 99/170/81 
f 100/171/82 84/150/66 83/149/65 
f 83/149/65 99/170/81 100/171/82 
f 101/172/83 85/173/67 84/150/66 
f 84/150/66 100/171/82 101/172/83 
f 102/174/84 86/153/68 85/151/67 
f 85/151/67 101/175/83 102/174/84 
f 103/176/85 87/154/69 86/153/68 
f 86/153/68 102/174/84 103/176/85 
f 104/177/86 88/155/70 87/154/69 
f 87/154/69 103/176/85 104/177/86 
f 105/178/87 89/156/71 88/155/70 
f 88/155/70 104/177/86 105/178/87 
f 106/179/88 90/157/72 89/158/71 
f 89/158/71 105/180/87 106/179/88 
f 92/160/74 76/140/58 90/157/72 
f 90/157/72 106/179/88 92/160/74 
f 92/181/74 107/182/89 91/183/73 
f 91/183/73 107/182/89 93/184/75 
f 93/184/75 107/182/89 94/185/76 
f 108/186/90 95/187/77 94/185/76 
f 94/185/76 107/182/89 108/186/90 
f 95/187/77 108/186/90 96/188/78 
f 96/188/78 108/186/90 97/189/79 
f 97/189/79 108/186/90 98/190/80 
f 109/191/91 99/192/81 98/190/80 
f 98/190/80 108/186/90 109/191/91 
f 99/192/81 109/191/91 100/193/82 
f 100/193/82 109/191/91 101/194/83 
f 101/194/83 109/191/91 102/195/84 
f 110/196/92 103/197/85 102/195/84 
f 102/195/84 109/191/91 110/196/92 
f 103/197/85 110/196/92 104/198/86 
f 104/198/86 110/196/92 105/199/87 
f 105/199/87 110/196/92 106/200/88 
f 107/201/89 92/160/74 106/179/88 
f 106/179/88 110/202/92 107/201/89 
f 108/186/90 107/182/89 110/196/92 
f 110/196/92 109/191/91 108/186/90 
# 118 faces

#
# object Plane001
#

v  7.5000 19.6985 -1.7101
v  7.5000 10.3015 1.7101
v  37.5000 19.6985 -1.7101
v  37.5000 10.3015 1.7101
# 4 vertices

vn 0.0000 0.3420 0.9397
# 1 vertex normals

vt 0.5122 0.0200 0.0000
vt 0.5122 0.1841 0.0000
vt 0.0200 0.0200 0.0000
vt 0.0200 0.1841 0.0000
# 4 texture coords

g Plane001
usemtl wire_177028149
s 1
f 111/203/93 112/204/93 113/205/93 
f 114/206/93 113/205/93 112/204/93 
# 2 faces

