# 3ds Max Wavefront OBJ Exporter v0.97b - (c)2007 guruware
# File Created: 10.07.2014 17:02:43

mtllib metop.mtl

#
# object Box001
#

v  -7.5000 10.0000 4.0000
v  -7.5000 10.0000 -4.0000
v  7.5000 10.0000 -4.0000
v  7.5000 10.0000 4.0000
v  -7.5000 18.0000 4.0000
v  7.5000 18.0000 4.0000
v  7.5000 18.0000 -4.0000
v  -7.5000 18.0000 -4.0000
# 8 vertices

vn 0.0000 -1.0000 -0.0000
vn 0.0000 1.0000 -0.0000
vn 0.0000 0.0000 1.0000
vn 0.0000 0.0000 -1.0000
vn -1.0000 0.0000 -0.0000
# 5 vertex normals

vt 0.5444 0.3739 0.0000
vt 0.5444 0.5101 0.0000
vt 0.2890 0.5101 0.0000
vt 0.2890 0.3739 0.0000
vt 0.5444 0.1562 0.0000
vt 0.2890 0.1562 0.0000
vt 0.2890 0.0200 0.0000
vt 0.5444 0.0200 0.0000
vt 0.5444 0.3332 0.0000
vt 0.2890 0.3332 0.0000
vt 0.2890 0.1970 0.0000
vt 0.5444 0.1970 0.0000
vt 0.8405 0.1562 0.0000
vt 0.5851 0.1562 0.0000
vt 0.5851 0.0200 0.0000
vt 0.8405 0.0200 0.0000
vt 0.5851 0.1970 0.0000
vt 0.7213 0.1970 0.0000
vt 0.7213 0.3332 0.0000
vt 0.5851 0.3332 0.0000
# 20 texture coords

g Box001
usemtl wire_138008110
s 2
f 1/1/1 2/2/1 3/3/1 
f 3/3/1 4/4/1 1/1/1 
s 4
f 5/5/2 6/6/2 7/7/2 
f 7/7/2 8/8/2 5/5/2 
s 8
f 1/9/3 4/10/3 6/11/3 
f 6/11/3 5/12/3 1/9/3 
s 32
f 3/13/4 2/14/4 8/15/4 
f 8/15/4 7/16/4 3/13/4 
s 64
f 2/17/5 1/18/5 5/19/5 
f 5/19/5 8/20/5 2/17/5 
# 10 faces

#
# object Box002
#

v  7.5000 8.0000 6.0000
v  7.5000 8.0000 -6.0000
v  12.5000 8.0000 -6.0000
v  12.5000 8.0000 6.0000
v  7.5000 18.0000 6.0000
v  12.5000 18.0000 6.0000
v  12.5000 18.0000 -6.0000
v  7.5000 18.0000 -6.0000
# 8 vertices

vn 0.0000 -1.0000 -0.0000
vn 0.0000 1.0000 -0.0000
vn 0.0000 0.0000 1.0000
vn 1.0000 0.0000 -0.0000
vn 0.0000 0.0000 -1.0000
vn -1.0000 0.0000 -0.0000
# 6 vertex normals

vt 0.7894 0.4591 0.0000
vt 0.5851 0.4591 0.0000
vt 0.5851 0.3739 0.0000
vt 0.7894 0.3739 0.0000
vt 0.0200 0.5851 0.0000
vt 0.0200 0.5000 0.0000
vt 0.2243 0.5000 0.0000
vt 0.2243 0.5851 0.0000
vt 0.2890 0.8471 0.0000
vt 0.2890 0.7619 0.0000
vt 0.4592 0.7619 0.0000
vt 0.4592 0.8471 0.0000
vt 0.2243 0.4592 0.0000
vt 0.0200 0.4592 0.0000
vt 0.0200 0.2890 0.0000
vt 0.2243 0.2890 0.0000
vt 0.5341 0.6360 0.0000
vt 0.5341 0.5509 0.0000
vt 0.7043 0.5509 0.0000
vt 0.7043 0.6360 0.0000
vt 0.4933 0.7212 0.0000
vt 0.2890 0.7212 0.0000
vt 0.2890 0.5509 0.0000
vt 0.4933 0.5509 0.0000
# 24 texture coords

g Box002
usemtl wire_176026026
s 2
f 9/21/6 10/22/6 11/23/6 
f 11/23/6 12/24/6 9/21/6 
s 4
f 13/25/7 14/26/7 15/27/7 
f 15/27/7 16/28/7 13/25/7 
s 8
f 9/29/8 12/30/8 14/31/8 
f 14/31/8 13/32/8 9/29/8 
s 16
f 12/33/9 11/34/9 15/35/9 
f 15/35/9 14/36/9 12/33/9 
s 32
f 11/37/10 10/38/10 16/39/10 
f 16/39/10 15/40/10 11/37/10 
s 64
f 10/41/11 9/42/11 13/43/11 
f 13/43/11 16/44/11 10/41/11 
# 12 faces

#
# object Box003
#

v  -13.5000 13.0000 4.0000
v  -13.5000 13.0000 -4.0000
v  -12.0247 13.0000 -4.0000
v  -12.0247 13.0000 4.0000
v  -7.5000 13.0000 -4.0000
v  -7.5000 13.0000 4.0000
v  -13.5000 14.1724 4.0000
v  -12.0247 18.0000 4.0000
v  -12.0247 18.0000 -4.0000
v  -13.5000 14.1724 -4.0000
v  -7.5000 18.0000 4.0000
v  -7.5000 18.0000 -4.0000
# 12 vertices

vn 0.0000 -1.0000 -0.0000
vn -0.9331 0.3596 0.0000
vn -0.5658 0.8245 -0.0000
vn -0.5658 0.8245 0.0000
vn 0.0000 1.0000 -0.0000
vn -0.0000 0.0000 1.0000
vn 0.0000 0.0000 1.0000
vn 0.0000 0.0000 -1.0000
vn -1.0000 0.0000 -0.0000
# 9 vertex normals

vt 0.8711 0.2991 0.0000
vt 0.7349 0.2991 0.0000
vt 0.7349 0.2740 0.0000
vt 0.8711 0.2740 0.0000
vt 0.7349 0.1970 0.0000
vt 0.8711 0.1970 0.0000
vt 0.8438 0.4391 0.0000
vt 0.8438 0.3739 0.0000
vt 0.9800 0.3739 0.0000
vt 0.9800 0.4391 0.0000
vt 0.0200 0.7165 0.0000
vt 0.0200 0.6395 0.0000
vt 0.1562 0.6395 0.0000
vt 0.1562 0.7165 0.0000
vt 0.8608 0.6360 0.0000
vt 0.8357 0.6360 0.0000
vt 0.8357 0.5509 0.0000
vt 0.8608 0.6161 0.0000
vt 0.7587 0.6360 0.0000
vt 0.7587 0.5509 0.0000
vt 0.1222 0.8560 0.0000
vt 0.0451 0.8560 0.0000
vt 0.0451 0.7709 0.0000
vt 0.1222 0.7709 0.0000
vt 0.0200 0.8560 0.0000
vt 0.0200 0.8360 0.0000
vt 0.9800 0.4591 0.0000
vt 0.8438 0.4591 0.0000
# 28 texture coords

g Box003
usemtl wire_228153184
s 2
f 17/45/12 18/46/12 19/47/12 
f 19/47/12 20/48/12 17/45/12 
f 20/48/12 19/47/12 21/49/12 
f 21/49/12 22/50/12 20/48/12 
s 4
f 23/51/13 24/52/14 25/53/15 
f 25/53/15 26/54/13 23/51/13 
f 24/55/14 27/56/16 28/57/16 
f 28/57/16 25/58/15 24/55/14 
s 8
f 17/59/17 20/60/17 24/61/17 
f 24/61/17 23/62/17 17/59/17 
f 20/60/17 22/63/18 27/64/17 
f 27/64/17 24/61/17 20/60/17 
s 32
f 21/65/19 19/66/19 25/67/19 
f 25/67/19 28/68/19 21/65/19 
f 19/66/19 18/69/19 26/70/19 
f 26/70/19 25/67/19 19/66/19 
s 64
f 18/71/20 17/72/20 23/51/20 
f 23/51/20 26/54/20 18/71/20 
# 18 faces

#
# object Box004
#

v  -3.2500 2.0000 0.2500
v  -3.2500 2.0000 -0.2500
v  -2.7500 2.0000 -0.2500
v  -2.7500 2.0000 0.2500
v  -3.2500 12.0000 0.2500
v  -2.7500 12.0000 0.2500
v  -2.7500 12.0000 -0.2500
v  -3.2500 12.0000 -0.2500
# 8 vertices

vn 0.0000 -1.0000 -0.0000
vn 0.0000 1.0000 -0.0000
vn 0.0000 0.0000 1.0000
vn 1.0000 0.0000 -0.0000
vn 0.0000 0.0000 -1.0000
vn -1.0000 0.0000 -0.0000
# 6 vertex normals

vt 0.5851 0.3553 0.0000
vt 0.5851 0.3468 0.0000
vt 0.5936 0.3468 0.0000
vt 0.5936 0.3553 0.0000
vt 0.2651 0.2890 0.0000
vt 0.2736 0.2890 0.0000
vt 0.2736 0.2975 0.0000
vt 0.2651 0.2975 0.0000
vt 0.5341 0.9641 0.0000
vt 0.5341 0.9556 0.0000
vt 0.7043 0.9556 0.0000
vt 0.7043 0.9641 0.0000
vt 0.2890 0.9099 0.0000
vt 0.2890 0.9014 0.0000
vt 0.4592 0.9014 0.0000
vt 0.4592 0.9099 0.0000
vt 0.0200 0.9053 0.0000
vt 0.0200 0.8967 0.0000
vt 0.1903 0.8967 0.0000
vt 0.1903 0.9053 0.0000
vt 0.7587 0.9641 0.0000
vt 0.7587 0.9556 0.0000
vt 0.9289 0.9556 0.0000
vt 0.9289 0.9641 0.0000
# 24 texture coords

g Box004
usemtl wire_154215229
s 2
f 29/73/21 30/74/21 31/75/21 
f 31/75/21 32/76/21 29/73/21 
s 4
f 33/77/22 34/78/22 35/79/22 
f 35/79/22 36/80/22 33/77/22 
s 8
f 29/81/23 32/82/23 34/83/23 
f 34/83/23 33/84/23 29/81/23 
s 16
f 32/85/24 31/86/24 35/87/24 
f 35/87/24 34/88/24 32/85/24 
s 32
f 31/89/25 30/90/25 36/91/25 
f 36/91/25 35/92/25 31/89/25 
s 64
f 30/93/26 29/94/26 33/95/26 
f 33/95/26 36/96/26 30/93/26 
# 12 faces

#
# object Box005
#

v  -13.4503 1.0000 6.8995
v  -14.2003 1.0000 5.6005
v  7.4503 1.0000 -6.8995
v  8.2003 1.0000 -5.6005
v  -13.4503 2.5000 6.8995
v  8.2003 2.5000 -5.6005
v  7.4503 2.5000 -6.8995
v  -14.2003 2.5000 5.6005
# 8 vertices

vn 0.0000 -1.0000 -0.0000
vn 0.0000 1.0000 -0.0000
vn 0.5000 0.0000 0.8660
vn 0.8660 0.0000 -0.5000
vn -0.5000 0.0000 -0.8660
vn -0.8660 0.0000 0.5000
# 6 vertex normals

vt 0.9597 0.8893 0.0000
vt 0.9597 0.9148 0.0000
vt 0.5341 0.9148 0.0000
vt 0.5341 0.8893 0.0000
vt 0.9597 0.8485 0.0000
vt 0.5341 0.8485 0.0000
vt 0.5341 0.8230 0.0000
vt 0.9597 0.8230 0.0000
vt 0.9597 0.7159 0.0000
vt 0.5341 0.7159 0.0000
vt 0.5341 0.6904 0.0000
vt 0.9597 0.6904 0.0000
vt 0.8813 0.0200 0.0000
vt 0.9068 0.0200 0.0000
vt 0.9068 0.0455 0.0000
vt 0.8813 0.0455 0.0000
vt 0.9597 0.7822 0.0000
vt 0.5341 0.7822 0.0000
vt 0.5341 0.7567 0.0000
vt 0.9597 0.7567 0.0000
vt 0.9255 0.1970 0.0000
vt 0.9510 0.1970 0.0000
vt 0.9510 0.2225 0.0000
vt 0.9255 0.2225 0.0000
# 24 texture coords

g Box005
usemtl wire_006135058
s 2
f 37/97/27 38/98/27 39/99/27 
f 39/99/27 40/100/27 37/97/27 
s 4
f 41/101/28 42/102/28 43/103/28 
f 43/103/28 44/104/28 41/101/28 
s 8
f 37/105/29 40/106/29 42/107/29 
f 42/107/29 41/108/29 37/105/29 
s 16
f 40/109/30 39/110/30 43/111/30 
f 43/111/30 42/112/30 40/109/30 
s 32
f 39/113/31 38/114/31 44/115/31 
f 44/115/31 43/116/31 39/113/31 
s 64
f 38/117/32 37/118/32 41/119/32 
f 41/119/32 44/120/32 38/117/32 
# 12 faces

#
# object Plane001
#

v  12.5000 15.0000 -0.2500
v  12.5000 15.0000 0.2500
v  19.5000 15.0000 -0.2500
v  19.5000 15.0000 0.2500
# 4 vertices

vn 0.0000 1.0000 -0.0000
# 1 vertex normals

vt 0.9630 0.4998 0.0000
vt 0.9630 0.5083 0.0000
vt 0.8438 0.4998 0.0000
vt 0.8438 0.5083 0.0000
# 4 texture coords

g Plane001
usemtl wire_224086086
s 1
f 45/121/33 46/122/33 47/123/33 
f 48/124/33 47/123/33 46/122/33 
# 2 faces

#
# object Plane002
#

v  19.5000 15.0000 -7.5000
v  19.5000 15.0000 7.5000
v  34.5000 15.0000 -7.5000
v  34.5000 15.0000 7.5000
# 4 vertices

vn 0.0000 1.0000 -0.0000
# 1 vertex normals

vt 0.0200 0.2754 0.0000
vt 0.0200 0.0200 0.0000
vt 0.2754 0.2754 0.0000
vt 0.2754 0.0200 0.0000
# 4 texture coords

g Plane002
usemtl wire_228184153
s 1
f 49/125/34 50/126/34 51/127/34 
f 52/128/34 51/127/34 50/126/34 
# 2 faces

