# 3ds Max Wavefront OBJ Exporter v0.97b - (c)2007 guruware
# File Created: 09.07.2014 12:32:27

mtllib noaa18_19.mtl

#
# object Cylinder001
#

v  7.3296 4.0000 -1.9411
v  6.4952 4.0000 -3.7500
v  6.4952 28.0000 -3.7500
v  7.3296 28.0000 -1.9411
v  5.3033 4.0000 -5.3033
v  5.3033 28.0000 -5.3033
v  3.7500 4.0000 -6.4952
v  3.7500 28.0000 -6.4952
v  1.9411 4.0000 -7.3296
v  1.9411 28.0000 -7.3296
v  -1.9411 4.0000 -7.3296
v  -3.7500 4.0000 -6.4952
v  -3.7500 28.0000 -6.4952
v  -1.9411 28.0000 -7.3296
v  -5.3033 4.0000 -5.3033
v  -5.3033 28.0000 -5.3033
v  -6.4952 4.0000 -3.7500
v  -6.4952 28.0000 -3.7500
v  -7.3296 4.0000 -1.9411
v  -7.3296 28.0000 -1.9411
v  -7.3296 4.0000 1.9411
v  -6.4952 4.0000 3.7500
v  -6.4952 28.0000 3.7500
v  -7.3296 28.0000 1.9411
v  -5.3033 4.0000 5.3033
v  -5.3033 28.0000 5.3033
v  -3.7500 4.0000 6.4952
v  -3.7500 28.0000 6.4952
v  -1.9411 4.0000 7.2444
v  -1.9411 28.0000 7.2444
v  -0.0000 4.0000 7.5000
v  -0.0000 28.0000 7.5000
v  1.9411 4.0000 7.2444
v  1.9411 28.0000 7.2444
v  3.7500 4.0000 6.4952
v  3.7500 28.0000 6.4952
v  5.3033 4.0000 5.3033
v  5.3033 28.0000 5.3033
v  6.4952 4.0000 3.7500
v  6.4952 28.0000 3.7500
v  7.3296 4.0000 1.9411
v  7.3296 28.0000 1.9411
v  6.4952 30.0000 -3.7500
v  7.3296 30.0000 -1.9411
v  5.3033 30.0000 -5.3033
v  3.7500 30.0000 -6.4952
v  1.9411 30.0000 -7.3296
v  -3.7500 30.0000 -6.4952
v  -1.9411 30.0000 -7.3296
v  -5.3033 30.0000 -5.3033
v  -6.4952 30.0000 -3.7500
v  -7.3296 30.0000 -1.9411
v  -6.4952 30.0000 4.8063
v  -7.3296 30.0000 1.9411
v  -5.0978 30.0000 7.4129
v  -3.7500 30.0000 9.8068
v  -1.9411 30.0000 9.7587
v  -0.0000 30.0000 9.7325
v  1.9411 30.0000 9.7587
v  3.7500 30.0000 9.8068
v  5.0978 30.0000 7.4129
v  6.4952 30.0000 4.8063
v  7.3296 30.0000 1.9411
v  0.0000 30.0000 -7.3296
v  -7.3296 30.0000 -0.0000
v  7.3296 30.0000 -0.0000
v  -7.3296 4.0000 -0.0000
v  0.0000 4.0000 -7.3296
v  7.3296 4.0000 -0.0000
# 69 vertices

vn 0.9080 -0.0000 -0.4189
vn 0.8560 -0.0000 -0.5170
vn 0.7071 -0.0000 -0.7071
vn 0.5170 -0.0000 -0.8560
vn 0.4189 -0.0000 -0.9080
vn -0.4189 -0.0000 -0.9080
vn -0.5170 -0.0000 -0.8560
vn -0.7071 -0.0000 -0.7071
vn -0.8560 -0.0000 -0.5170
vn -0.9080 -0.0000 -0.4189
vn -0.9080 -0.0000 0.4189
vn -0.8560 -0.0000 0.5170
vn -0.8637 -0.1379 0.4848
vn -0.9257 -0.0418 0.3760
vn -0.7071 -0.0000 0.7071
vn -0.7094 -0.2957 0.6398
vn -0.5000 -0.0000 0.8660
vn -0.4397 -0.4644 0.7688
vn -0.2588 -0.0000 0.9659
vn -0.2310 -0.4334 0.8711
vn -0.0000 -0.0000 1.0000
vn -0.0105 -0.4304 0.9026
vn 0.2588 -0.0000 0.9659
vn 0.2098 -0.4694 0.8577
vn 0.5000 -0.0000 0.8660
vn 0.5103 -0.4022 0.7602
vn 0.7071 -0.0000 0.7071
vn 0.7260 -0.2295 0.6483
vn 0.8560 -0.0000 0.5170
vn 0.8747 -0.0873 0.4767
vn 0.9080 -0.0000 0.4189
vn 0.8560 0.0000 -0.5170
vn 0.9080 0.0000 -0.4189
vn 0.7071 0.0000 -0.7071
vn 0.5170 0.0000 -0.8560
vn 0.4189 0.0000 -0.9080
vn -0.5170 0.0000 -0.8560
vn -0.4189 0.0000 -0.9080
vn -0.7071 0.0000 -0.7071
vn -0.8560 0.0000 -0.5170
vn -0.9080 0.0000 -0.4189
vn -0.8870 -0.1932 0.4193
vn -0.9601 0.0000 0.2796
vn -0.7998 -0.3821 0.4629
vn -0.2085 -0.8175 0.5369
vn -0.0270 -0.8107 0.5849
vn -0.0169 -0.7574 0.6528
vn 0.0037 -0.7710 0.6368
vn 0.2702 -0.7905 0.5496
vn 0.6810 -0.5701 0.4596
vn 0.8601 -0.2797 0.4267
vn 0.9342 -0.0741 0.3490
vn 0.0000 1.0000 -0.0000
vn 1.0000 0.0000 -0.0000
vn 0.0000 -1.0000 -0.0000
vn -1.0000 0.0000 -0.0000
vn 0.0000 0.0000 -1.0000
# 57 vertex normals

vt 0.0200 0.0823 0.0000
vt 0.0200 0.0576 0.0000
vt 0.3483 0.0576 0.0000
vt 0.3483 0.0823 0.0000
vt 0.0200 0.0363 0.0000
vt 0.3483 0.0363 0.0000
vt 0.0200 0.0200 0.0000
vt 0.3483 0.0200 0.0000
vt 0.6129 0.8426 0.0000
vt 0.6129 0.8178 0.0000
vt 0.9412 0.8178 0.0000
vt 0.9412 0.8426 0.0000
vt 0.6129 0.7647 0.0000
vt 0.6129 0.7400 0.0000
vt 0.9412 0.7400 0.0000
vt 0.9412 0.7647 0.0000
vt 0.0200 0.5231 0.0000
vt 0.0200 0.5068 0.0000
vt 0.3483 0.5068 0.0000
vt 0.3483 0.5231 0.0000
vt 0.0200 0.4856 0.0000
vt 0.3483 0.4856 0.0000
vt 0.0200 0.4608 0.0000
vt 0.3483 0.4608 0.0000
vt 0.0200 0.4077 0.0000
vt 0.0200 0.3830 0.0000
vt 0.3483 0.3830 0.0000
vt 0.3483 0.4077 0.0000
vt 0.0200 0.3617 0.0000
vt 0.3483 0.3617 0.0000
vt 0.0200 0.3454 0.0000
vt 0.3483 0.3454 0.0000
vt 0.6129 0.6828 0.0000
vt 0.6129 0.6581 0.0000
vt 0.9412 0.6581 0.0000
vt 0.9412 0.6828 0.0000
vt 0.6129 0.6315 0.0000
vt 0.9412 0.6315 0.0000
vt 0.6129 0.6050 0.0000
vt 0.9412 0.6050 0.0000
vt 0.6129 0.5802 0.0000
vt 0.9412 0.5802 0.0000
vt 0.0200 0.1977 0.0000
vt 0.0200 0.1814 0.0000
vt 0.3483 0.1814 0.0000
vt 0.3483 0.1977 0.0000
vt 0.0200 0.1602 0.0000
vt 0.3483 0.1602 0.0000
vt 0.0200 0.1354 0.0000
vt 0.3483 0.1354 0.0000
vt 0.3757 0.0576 0.0000
vt 0.3757 0.0823 0.0000
vt 0.3757 0.0363 0.0000
vt 0.3757 0.0200 0.0000
vt 0.9686 0.8178 0.0000
vt 0.9686 0.8426 0.0000
vt 0.9686 0.7400 0.0000
vt 0.9686 0.7647 0.0000
vt 0.3757 0.5068 0.0000
vt 0.3757 0.5231 0.0000
vt 0.3757 0.4856 0.0000
vt 0.3757 0.4608 0.0000
vt 0.3757 0.3685 0.0000
vt 0.3757 0.4077 0.0000
vt 0.3757 0.3329 0.0000
vt 0.3757 0.3001 0.0000
vt 0.9686 0.6581 0.0000
vt 0.9686 0.6828 0.0000
vt 0.9686 0.6315 0.0000
vt 0.9686 0.6050 0.0000
vt 0.9686 0.5802 0.0000
vt 0.3757 0.2103 0.0000
vt 0.3757 0.2430 0.0000
vt 0.3757 0.1746 0.0000
vt 0.3757 0.1354 0.0000
vt 0.4820 0.5802 0.0000
vt 0.5068 0.5917 0.0000
vt 0.5280 0.6080 0.0000
vt 0.5443 0.6292 0.0000
vt 0.5558 0.6540 0.0000
vt 0.5558 0.6805 0.0000
vt 0.5558 0.7071 0.0000
vt 0.5443 0.7318 0.0000
vt 0.5280 0.7531 0.0000
vt 0.5068 0.7694 0.0000
vt 0.4820 0.7808 0.0000
vt 0.4555 0.7808 0.0000
vt 0.4289 0.7808 0.0000
vt 0.3897 0.7694 0.0000
vt 0.3541 0.7503 0.0000
vt 0.3213 0.7318 0.0000
vt 0.3220 0.7071 0.0000
vt 0.3223 0.6805 0.0000
vt 0.3220 0.6540 0.0000
vt 0.3213 0.6292 0.0000
vt 0.3541 0.6108 0.0000
vt 0.3897 0.5917 0.0000
vt 0.4289 0.5802 0.0000
vt 0.4555 0.5802 0.0000
vt 0.0200 0.4343 0.0000
vt 0.3757 0.4343 0.0000
vt 0.6129 0.7913 0.0000
vt 0.9686 0.7913 0.0000
vt 0.3757 0.1089 0.0000
vt 0.0200 0.1089 0.0000
# 105 texture coords

g Cylinder001
usemtl wire_006135058
s 8
f 1/1/1 2/2/2 3/3/2 
f 3/3/2 4/4/1 1/1/1 
f 2/2/2 5/5/3 6/6/3 
f 6/6/3 3/3/2 2/2/2 
f 5/5/3 7/7/4 8/8/4 
f 8/8/4 6/6/3 5/5/3 
f 7/9/4 9/10/5 10/11/5 
f 10/11/5 8/12/4 7/9/4 
f 11/13/6 12/14/7 13/15/7 
f 13/15/7 14/16/6 11/13/6 
f 12/17/7 15/18/8 16/19/8 
f 16/19/8 13/20/7 12/17/7 
f 15/18/8 17/21/9 18/22/9 
f 18/22/9 16/19/8 15/18/8 
f 17/21/9 19/23/10 20/24/10 
f 20/24/10 18/22/9 17/21/9 
f 21/25/11 22/26/12 23/27/13 
f 23/27/13 24/28/14 21/25/11 
f 22/26/12 25/29/15 26/30/16 
f 26/30/16 23/27/13 22/26/12 
f 25/29/15 27/31/17 28/32/18 
f 28/32/18 26/30/16 25/29/15 
f 27/33/17 29/34/19 30/35/20 
f 30/35/20 28/36/18 27/33/17 
f 29/34/19 31/37/21 32/38/22 
f 32/38/22 30/35/20 29/34/19 
f 31/37/21 33/39/23 34/40/24 
f 34/40/24 32/38/22 31/37/21 
f 33/39/23 35/41/25 36/42/26 
f 36/42/26 34/40/24 33/39/23 
f 35/43/25 37/44/27 38/45/28 
f 38/45/28 36/46/26 35/43/25 
f 37/44/27 39/47/29 40/48/30 
f 40/48/30 38/45/28 37/44/27 
f 39/47/29 41/49/31 42/50/31 
f 42/50/31 40/48/30 39/47/29 
f 4/4/1 3/3/2 43/51/32 
f 43/51/32 44/52/33 4/4/1 
f 3/3/2 6/6/3 45/53/34 
f 45/53/34 43/51/32 3/3/2 
f 6/6/3 8/8/4 46/54/35 
f 46/54/35 45/53/34 6/6/3 
f 8/12/4 10/11/5 47/55/36 
f 47/55/36 46/56/35 8/12/4 
f 14/16/6 13/15/7 48/57/37 
f 48/57/37 49/58/38 14/16/6 
f 13/20/7 16/19/8 50/59/39 
f 50/59/39 48/60/37 13/20/7 
f 16/19/8 18/22/9 51/61/40 
f 51/61/40 50/59/39 16/19/8 
f 18/22/9 20/24/10 52/62/41 
f 52/62/41 51/61/40 18/22/9 
f 24/28/14 23/27/13 53/63/42 
f 53/63/42 54/64/43 24/28/14 
f 23/27/13 26/30/16 55/65/44 
f 55/65/44 53/63/42 23/27/13 
f 26/30/16 28/32/18 56/66/45 
f 56/66/45 55/65/44 26/30/16 
f 28/36/18 30/35/20 57/67/46 
f 57/67/46 56/68/45 28/36/18 
f 30/35/20 32/38/22 58/69/47 
f 58/69/47 57/67/46 30/35/20 
f 32/38/22 34/40/24 59/70/48 
f 59/70/48 58/69/47 32/38/22 
f 34/40/24 36/42/26 60/71/49 
f 60/71/49 59/70/48 34/40/24 
f 36/46/26 38/45/28 61/72/50 
f 61/72/50 60/73/49 36/46/26 
f 38/45/28 40/48/30 62/74/51 
f 62/74/51 61/72/50 38/45/28 
f 40/48/30 42/50/31 63/75/52 
f 63/75/52 62/74/51 40/48/30 
s 1
f 44/76/53 43/77/53 45/78/53 
f 45/78/53 46/79/53 47/80/53 
f 47/80/53 64/81/54 49/82/53 
f 45/78/53 47/80/53 49/82/53 
f 49/82/53 48/83/53 50/84/53 
f 50/84/53 51/85/53 52/86/53 
f 49/82/53 50/84/53 52/86/53 
f 52/86/53 65/87/54 54/88/53 
f 54/88/53 53/89/53 55/90/53 
f 52/86/53 54/88/53 55/90/53 
f 49/82/53 52/86/53 55/90/53 
f 55/90/53 56/91/53 57/92/53 
f 57/92/53 58/93/55 59/94/53 
f 55/90/53 57/92/53 59/94/53 
f 59/94/53 60/95/53 61/96/53 
f 61/96/53 62/97/53 63/98/53 
f 59/94/53 61/96/53 63/98/53 
f 55/90/53 59/94/53 63/98/53 
f 49/82/53 55/90/53 63/98/53 
f 45/78/53 49/82/53 63/98/53 
f 44/76/53 45/78/53 63/98/53 
f 66/99/54 44/76/53 63/98/53 
s off
f 67/100/56 21/25/56 24/28/56 
f 24/28/56 54/64/56 65/101/56 
f 65/101/56 52/62/56 20/24/56 
f 24/28/56 65/101/56 20/24/56 
f 67/100/56 24/28/56 20/24/56 
f 67/100/56 20/24/56 19/23/56 
f 68/102/57 11/13/57 14/16/57 
f 14/16/57 49/58/57 64/103/57 
f 64/103/57 47/55/57 10/11/57 
f 14/16/57 64/103/57 10/11/57 
f 68/102/57 14/16/57 10/11/57 
f 68/102/57 10/11/57 9/10/57 
f 4/4/54 44/52/54 66/104/54 
f 66/104/54 63/75/54 42/50/54 
f 42/50/54 41/49/54 69/105/54 
f 66/104/54 42/50/54 69/105/54 
f 4/4/54 66/104/54 69/105/54 
f 1/1/54 4/4/54 69/105/54 
# 112 faces

#
# object Plane001
#

v  -20.0000 10.9240 10.8682
v  20.0000 10.9240 10.8682
v  -20.0000 1.0760 9.1318
v  20.0000 1.0760 9.1318
# 4 vertices

vn 0.0000 0.1736 -0.9848
# 1 vertex normals

vt 0.9800 0.1568 0.0000
vt 0.4328 0.1568 0.0000
vt 0.9800 0.0200 0.0000
vt 0.4328 0.0200 0.0000
# 4 texture coords

g Plane001
usemtl wire_138008110
s 1
f 70/106/58 71/107/58 72/108/58 
f 73/109/58 72/108/58 71/107/58 
# 2 faces

#
# object Cylinder002
#

v  0.0000 0.0000 -0.0000
v  8.6933 0.0000 -2.3294
v  9.0000 0.0000 -0.0000
v  7.7942 0.0000 -4.5000
v  6.3640 0.0000 -6.3640
v  4.5000 0.0000 -7.7942
v  2.3294 0.0000 -8.6933
v  0.0000 0.0000 -9.0000
v  -2.3294 0.0000 -8.6933
v  -4.5000 0.0000 -7.7942
v  -6.3640 0.0000 -6.3640
v  -7.7942 0.0000 -4.5000
v  -8.6933 0.0000 -2.3294
v  -9.0000 0.0000 -0.0000
v  -8.6933 0.0000 2.3294
v  -7.7942 0.0000 4.5000
v  -6.3640 0.0000 6.3640
v  -4.5000 0.0000 7.7942
v  -2.3294 0.0000 8.6933
v  -0.0000 0.0000 9.0000
v  2.3294 0.0000 8.6933
v  4.5000 0.0000 7.7942
v  6.3640 0.0000 6.3640
v  7.7942 0.0000 4.5000
v  8.6933 0.0000 2.3294
v  8.6933 4.0000 -2.3294
v  9.0000 4.0000 -0.0000
v  7.7942 4.0000 -4.5000
v  6.3640 4.0000 -6.3640
v  4.5000 4.0000 -7.7942
v  2.3294 4.0000 -8.6933
v  0.0000 4.0000 -9.0000
v  -2.3294 4.0000 -8.6933
v  -4.5000 4.0000 -7.7942
v  -6.3640 4.0000 -6.3640
v  -7.7942 4.0000 -4.5000
v  -8.6933 4.0000 -2.3294
v  -9.0000 4.0000 -0.0000
v  -8.6933 4.0000 2.3294
v  -7.7942 4.0000 4.5000
v  -6.3640 4.0000 6.3640
v  -4.5000 4.0000 7.7942
v  -2.3294 4.0000 8.6933
v  -0.0000 4.0000 9.0000
v  2.3294 4.0000 8.6933
v  4.5000 4.0000 7.7942
v  6.3640 4.0000 6.3640
v  7.7942 4.0000 4.5000
v  8.6933 4.0000 2.3294
v  0.0000 4.0000 -0.0000
# 50 vertices

vn 0.0000 -1.0000 -0.0000
vn 1.0000 0.0000 0.0000
vn 0.9659 0.0000 -0.2588
vn 0.8660 0.0000 -0.5000
vn 0.7071 0.0000 -0.7071
vn 0.5000 0.0000 -0.8660
vn 0.2588 0.0000 -0.9659
vn 0.0000 0.0000 -1.0000
vn -0.2588 0.0000 -0.9659
vn -0.5000 0.0000 -0.8660
vn -0.7071 0.0000 -0.7071
vn -0.8660 0.0000 -0.5000
vn -0.9659 0.0000 -0.2588
vn -1.0000 0.0000 -0.0000
vn -0.9659 0.0000 0.2588
vn -0.8660 0.0000 0.5000
vn -0.7071 0.0000 0.7071
vn -0.5000 0.0000 0.8660
vn -0.2588 0.0000 0.9659
vn -0.0000 0.0000 1.0000
vn 0.2588 0.0000 0.9659
vn 0.5000 0.0000 0.8660
vn 0.7071 0.0000 0.7071
vn 0.8660 0.0000 0.5000
vn 0.9659 0.0000 0.2588
vn 0.0000 1.0000 -0.0000
# 26 vertex normals

vt 0.5549 0.4222 0.0000
vt 0.6017 0.3084 0.0000
vt 0.6296 0.3244 0.0000
vt 0.5707 0.3001 0.0000
vt 0.5385 0.3002 0.0000
vt 0.5075 0.3086 0.0000
vt 0.4797 0.3248 0.0000
vt 0.4570 0.3475 0.0000
vt 0.4410 0.3754 0.0000
vt 0.4328 0.4065 0.0000
vt 0.4329 0.4386 0.0000
vt 0.4413 0.4697 0.0000
vt 0.4574 0.4974 0.0000
vt 0.4802 0.5201 0.0000
vt 0.5081 0.5361 0.0000
vt 0.5392 0.5443 0.0000
vt 0.5713 0.5443 0.0000
vt 0.6023 0.5359 0.0000
vt 0.6301 0.5197 0.0000
vt 0.6528 0.4969 0.0000
vt 0.6688 0.4690 0.0000
vt 0.6770 0.4380 0.0000
vt 0.6769 0.4058 0.0000
vt 0.6685 0.3748 0.0000
vt 0.6524 0.3470 0.0000
vt 0.1266 0.9363 0.0000
vt 0.0948 0.8816 0.0000
vt 0.1266 0.8816 0.0000
vt 0.0948 0.9363 0.0000
vt 0.0651 0.8816 0.0000
vt 0.0651 0.9363 0.0000
vt 0.0396 0.8816 0.0000
vt 0.0396 0.9363 0.0000
vt 0.0200 0.8816 0.0000
vt 0.0200 0.9363 0.0000
vt 0.4445 0.8926 0.0000
vt 0.4148 0.8379 0.0000
vt 0.4445 0.8379 0.0000
vt 0.4148 0.8926 0.0000
vt 0.3829 0.8379 0.0000
vt 0.3829 0.8926 0.0000
vt 0.3510 0.8379 0.0000
vt 0.3510 0.8926 0.0000
vt 0.3213 0.8379 0.0000
vt 0.3213 0.8926 0.0000
vt 0.9045 0.3548 0.0000
vt 0.8850 0.3001 0.0000
vt 0.9045 0.3001 0.0000
vt 0.8850 0.3548 0.0000
vt 0.8595 0.3001 0.0000
vt 0.8595 0.3548 0.0000
vt 0.8298 0.3001 0.0000
vt 0.8298 0.3548 0.0000
vt 0.7979 0.3001 0.0000
vt 0.7979 0.3548 0.0000
vt 0.7661 0.3001 0.0000
vt 0.7661 0.3548 0.0000
vt 0.7364 0.3001 0.0000
vt 0.7364 0.3548 0.0000
vt 0.7109 0.3001 0.0000
vt 0.7109 0.3548 0.0000
vt 0.6913 0.3001 0.0000
vt 0.6913 0.3548 0.0000
vt 0.7360 0.9544 0.0000
vt 0.7063 0.8997 0.0000
vt 0.7360 0.8997 0.0000
vt 0.7063 0.9544 0.0000
vt 0.6744 0.8997 0.0000
vt 0.6744 0.9544 0.0000
vt 0.6426 0.8997 0.0000
vt 0.6426 0.9544 0.0000
vt 0.6129 0.8997 0.0000
vt 0.6129 0.9544 0.0000
vt 0.2333 0.9363 0.0000
vt 0.2137 0.8816 0.0000
vt 0.2333 0.8816 0.0000
vt 0.2137 0.9363 0.0000
vt 0.1882 0.8816 0.0000
vt 0.1882 0.9363 0.0000
vt 0.1585 0.8816 0.0000
vt 0.1585 0.9363 0.0000
vt 0.1421 0.7024 0.0000
vt 0.0442 0.6277 0.0000
vt 0.0669 0.6049 0.0000
vt 0.0947 0.5887 0.0000
vt 0.1257 0.5803 0.0000
vt 0.1579 0.5802 0.0000
vt 0.1889 0.5885 0.0000
vt 0.2168 0.6045 0.0000
vt 0.2396 0.6271 0.0000
vt 0.2557 0.6549 0.0000
vt 0.2641 0.6860 0.0000
vt 0.2642 0.7181 0.0000
vt 0.2560 0.7492 0.0000
vt 0.2400 0.7770 0.0000
vt 0.2173 0.7998 0.0000
vt 0.1895 0.8160 0.0000
vt 0.1585 0.8244 0.0000
vt 0.1264 0.8245 0.0000
vt 0.0953 0.8162 0.0000
vt 0.0674 0.8002 0.0000
vt 0.0446 0.7776 0.0000
vt 0.0285 0.7498 0.0000
vt 0.0201 0.7188 0.0000
vt 0.0200 0.6866 0.0000
vt 0.0282 0.6555 0.0000
# 106 texture coords

g Cylinder002
usemtl wire_225198087
s 1
f 74/110/59 75/111/59 76/112/59 
f 74/110/59 77/113/59 75/111/59 
f 74/110/59 78/114/59 77/113/59 
f 74/110/59 79/115/59 78/114/59 
f 74/110/59 80/116/59 79/115/59 
f 74/110/59 81/117/59 80/116/59 
f 74/110/59 82/118/59 81/117/59 
f 74/110/59 83/119/59 82/118/59 
f 74/110/59 84/120/59 83/119/59 
f 74/110/59 85/121/59 84/120/59 
f 74/110/59 86/122/59 85/121/59 
f 74/110/59 87/123/59 86/122/59 
f 74/110/59 88/124/59 87/123/59 
f 74/110/59 89/125/59 88/124/59 
f 74/110/59 90/126/59 89/125/59 
f 74/110/59 91/127/59 90/126/59 
f 74/110/59 92/128/59 91/127/59 
f 74/110/59 93/129/59 92/128/59 
f 74/110/59 94/130/59 93/129/59 
f 74/110/59 95/131/59 94/130/59 
f 74/110/59 96/132/59 95/131/59 
f 74/110/59 97/133/59 96/132/59 
f 74/110/59 98/134/59 97/133/59 
f 74/110/59 76/112/59 98/134/59 
s 8
f 76/135/60 99/136/61 100/137/60 
f 76/135/60 75/138/61 99/136/61 
f 75/138/61 101/139/62 99/136/61 
f 75/138/61 77/140/62 101/139/62 
f 77/140/62 102/141/63 101/139/62 
f 77/140/62 78/142/63 102/141/63 
f 78/142/63 103/143/64 102/141/63 
f 78/142/63 79/144/64 103/143/64 
f 79/145/64 104/146/65 103/147/64 
f 79/145/64 80/148/65 104/146/65 
f 80/148/65 105/149/66 104/146/65 
f 80/148/65 81/150/66 105/149/66 
f 81/150/66 106/151/67 105/149/66 
f 81/150/66 82/152/67 106/151/67 
f 82/152/67 107/153/68 106/151/67 
f 82/152/67 83/154/68 107/153/68 
f 83/155/68 108/156/69 107/157/68 
f 83/155/68 84/158/69 108/156/69 
f 84/158/69 109/159/70 108/156/69 
f 84/158/69 85/160/70 109/159/70 
f 85/160/70 110/161/71 109/159/70 
f 85/160/70 86/162/71 110/161/71 
f 86/162/71 111/163/72 110/161/71 
f 86/162/71 87/164/72 111/163/72 
f 87/164/72 112/165/73 111/163/72 
f 87/164/72 88/166/73 112/165/73 
f 88/166/73 113/167/74 112/165/73 
f 88/166/73 89/168/74 113/167/74 
f 89/168/74 114/169/75 113/167/74 
f 89/168/74 90/170/75 114/169/75 
f 90/170/75 115/171/76 114/169/75 
f 90/170/75 91/172/76 115/171/76 
f 91/173/76 116/174/77 115/175/76 
f 91/173/76 92/176/77 116/174/77 
f 92/176/77 117/177/78 116/174/77 
f 92/176/77 93/178/78 117/177/78 
f 93/178/78 118/179/79 117/177/78 
f 93/178/78 94/180/79 118/179/79 
f 94/180/79 119/181/80 118/179/79 
f 94/180/79 95/182/80 119/181/80 
f 95/183/80 120/184/81 119/185/80 
f 95/183/80 96/186/81 120/184/81 
f 96/186/81 121/187/82 120/184/81 
f 96/186/81 97/188/82 121/187/82 
f 97/188/82 122/189/83 121/187/82 
f 97/188/82 98/190/83 122/189/83 
f 98/190/83 100/137/60 122/189/83 
f 98/190/83 76/135/60 100/137/60 
s 1
f 123/191/84 100/192/84 99/193/84 
f 123/191/84 99/193/84 101/194/84 
f 123/191/84 101/194/84 102/195/84 
f 123/191/84 102/195/84 103/196/84 
f 123/191/84 103/196/84 104/197/84 
f 123/191/84 104/197/84 105/198/84 
f 123/191/84 105/198/84 106/199/84 
f 123/191/84 106/199/84 107/200/84 
f 123/191/84 107/200/84 108/201/84 
f 123/191/84 108/201/84 109/202/84 
f 123/191/84 109/202/84 110/203/84 
f 123/191/84 110/203/84 111/204/84 
f 123/191/84 111/204/84 112/205/84 
f 123/191/84 112/205/84 113/206/84 
f 123/191/84 113/206/84 114/207/84 
f 123/191/84 114/207/84 115/208/84 
f 123/191/84 115/208/84 116/209/84 
f 123/191/84 116/209/84 117/210/84 
f 123/191/84 117/210/84 118/211/84 
f 123/191/84 118/211/84 119/212/84 
f 123/191/84 119/212/84 120/213/84 
f 123/191/84 120/213/84 121/214/84 
f 123/191/84 121/214/84 122/215/84 
f 123/191/84 122/215/84 100/192/84 
# 96 faces

