# 3ds Max Wavefront OBJ Exporter v0.97b - (c)2007 guruware
# File Created: 09.07.2014 11:10:32

mtllib noaa15_16.mtl

#
# object Prism001
#

v  0.0000 1.4434 7.5000
v  -2.5000 -0.0000 7.5000
v  2.5000 -0.0000 7.5000
v  -0.0000 4.3301 7.5000
v  -2.5000 0.0000 -7.5000
v  2.5000 0.0000 -7.5000
v  -0.0000 4.3301 -7.5000
v  0.0000 1.4434 -7.5000
# 8 vertices

vn 0.0000 -0.0000 1.0000
vn 0.0000 -1.0000 -0.0000
vn 0.8660 0.5000 0.0000
vn -0.8660 0.5000 0.0000
vn 0.0000 0.0000 -1.0000
# 5 vertex normals

vt 0.3516 0.7907 0.0000
vt 0.3918 0.8139 0.0000
vt 0.3115 0.8139 0.0000
vt 0.3516 0.7443 0.0000
vt 0.9538 0.1003 0.0000
vt 0.7129 0.1003 0.0000
vt 0.7129 0.0200 0.0000
vt 0.9538 0.0200 0.0000
vt 0.2609 0.8139 0.0000
vt 0.0200 0.8139 0.0000
vt 0.0200 0.7443 0.0000
vt 0.2609 0.7443 0.0000
vt 0.7129 0.4718 0.0000
vt 0.4721 0.4718 0.0000
vt 0.4721 0.4022 0.0000
vt 0.7129 0.4022 0.0000
vt 0.1003 0.8645 0.0000
vt 0.0601 0.8877 0.0000
vt 0.0200 0.8645 0.0000
vt 0.0601 0.9340 0.0000
# 20 texture coords

g Prism001
usemtl wire_088144225
s 1
f 1/1/1 2/2/1 3/3/1 
f 1/1/1 3/3/1 4/4/1 
f 1/1/1 4/4/1 2/2/1 
s 2
f 2/5/2 5/6/2 6/7/2 
f 2/5/2 6/7/2 3/8/2 
s 4
f 3/9/3 6/10/3 7/11/3 
f 3/9/3 7/11/3 4/12/3 
s 8
f 4/13/4 7/14/4 5/15/4 
f 4/13/4 5/15/4 2/16/4 
s 1
f 5/17/5 8/18/5 6/19/5 
f 6/19/5 8/18/5 7/20/5 
f 7/20/5 8/18/5 5/17/5 
# 12 faces

#
# object Box001
#

v  -1.2500 2.5000 3.7500
v  -1.2500 2.5000 -3.7500
v  6.2500 2.5000 -3.7500
v  6.2500 2.5000 3.7500
v  -1.2500 27.5000 3.7500
v  6.2500 27.5000 3.7500
v  6.2500 27.5000 -3.7500
v  -1.2500 27.5000 -3.7500
# 8 vertices

vn 0.0000 -1.0000 -0.0000
vn 0.0000 1.0000 -0.0000
vn 0.0000 0.0000 1.0000
vn 1.0000 0.0000 -0.0000
vn 0.0000 0.0000 -1.0000
vn -1.0000 0.0000 -0.0000
# 6 vertex normals

vt 0.7636 0.5227 0.0000
vt 0.7636 0.4022 0.0000
vt 0.8840 0.4022 0.0000
vt 0.8840 0.5227 0.0000
vt 0.4721 0.5733 0.0000
vt 0.5925 0.5733 0.0000
vt 0.5925 0.6937 0.0000
vt 0.4721 0.6937 0.0000
vt 0.4721 0.3516 0.0000
vt 0.4721 0.2312 0.0000
vt 0.8735 0.2312 0.0000
vt 0.8735 0.3516 0.0000
vt 0.0200 0.6937 0.0000
vt 0.0200 0.5733 0.0000
vt 0.4215 0.5733 0.0000
vt 0.4215 0.6937 0.0000
vt 0.0200 0.5227 0.0000
vt 0.0200 0.4022 0.0000
vt 0.4215 0.4022 0.0000
vt 0.4215 0.5227 0.0000
vt 0.0200 0.3516 0.0000
vt 0.0200 0.2312 0.0000
vt 0.4215 0.2312 0.0000
vt 0.4215 0.3516 0.0000
# 24 texture coords

g Box001
usemtl wire_085028177
s 2
f 9/21/6 10/22/6 11/23/6 
f 11/23/6 12/24/6 9/21/6 
s 4
f 13/25/7 14/26/7 15/27/7 
f 15/27/7 16/28/7 13/25/7 
s 8
f 9/29/8 12/30/8 14/31/8 
f 14/31/8 13/32/8 9/29/8 
s 16
f 12/33/9 11/34/9 15/35/9 
f 15/35/9 14/36/9 12/33/9 
s 32
f 11/37/10 10/38/10 16/39/10 
f 16/39/10 15/40/10 11/37/10 
s 64
f 10/41/11 9/42/11 13/43/11 
f 13/43/11 16/44/11 10/41/11 
# 12 faces

#
# object Plane001
#

v  -3.8302 25.3861 -20.0000
v  -3.8302 25.3861 20.0000
v  3.8302 31.8139 -20.0000
v  3.8302 31.8139 20.0000
# 4 vertices

vn -0.6428 0.7660 -0.0000
# 1 vertex normals

vt 0.6623 0.1806 0.0000
vt 0.0200 0.1806 0.0000
vt 0.6623 0.0200 0.0000
vt 0.0200 0.0200 0.0000
# 4 texture coords

g Plane001
usemtl wire_028089177
s 1
f 17/45/12 18/46/12 19/47/12 
f 20/48/12 19/47/12 18/46/12 
# 2 faces

#
# object Cylinder001
#

v  2.7500 20.0000 -2.5000
v  2.6768 19.8750 -2.3750
v  2.6768 12.8039 -9.4461
v  2.7500 12.9289 -9.5711
v  2.5000 19.8232 -2.3232
v  2.5000 12.7522 -9.3943
v  2.3232 19.8750 -2.3750
v  2.3232 12.8039 -9.4461
v  2.2500 20.0000 -2.5000
v  2.2500 12.9289 -9.5711
v  2.3232 20.1250 -2.6250
v  2.3232 13.0539 -9.6961
v  2.5000 20.1768 -2.6768
v  2.5000 13.1057 -9.7478
v  2.6768 20.1250 -2.6250
v  2.6768 13.0539 -9.6961
# 16 vertices

vn 1.0000 0.0000 -0.0000
vn 0.7071 -0.5000 0.5000
vn -0.0000 -0.7071 0.7071
vn -0.7071 -0.5000 0.5000
vn -1.0000 0.0000 -0.0000
vn -0.7071 0.5000 -0.5000
vn -0.0000 0.7071 -0.7071
vn 0.0000 0.7071 -0.7071
vn 0.7071 0.5000 -0.5000
# 9 vertex normals

vt 0.4297 0.8597 0.0000
vt 0.4297 0.8569 0.0000
vt 0.5903 0.8569 0.0000
vt 0.5903 0.8597 0.0000
vt 0.6730 0.7500 0.0000
vt 0.6730 0.7472 0.0000
vt 0.8336 0.7472 0.0000
vt 0.8336 0.7500 0.0000
vt 0.6730 0.7443 0.0000
vt 0.8336 0.7443 0.0000
vt 0.4297 0.8063 0.0000
vt 0.4297 0.8035 0.0000
vt 0.5903 0.8035 0.0000
vt 0.5903 0.8063 0.0000
vt 0.4297 0.8006 0.0000
vt 0.5903 0.8006 0.0000
vt 0.6052 0.6915 0.0000
vt 0.6052 0.6887 0.0000
vt 0.7657 0.6887 0.0000
vt 0.7657 0.6915 0.0000
vt 0.6052 0.6859 0.0000
vt 0.7657 0.6859 0.0000
vt 0.4297 0.8626 0.0000
vt 0.5903 0.8626 0.0000
# 24 texture coords

g Cylinder001
usemtl wire_214229166
s 8
f 21/49/13 22/50/14 23/51/14 
f 23/51/14 24/52/13 21/49/13 
f 22/53/14 25/54/15 26/55/15 
f 26/55/15 23/56/14 22/53/14 
f 25/54/15 27/57/16 28/58/16 
f 28/58/16 26/55/15 25/54/15 
f 27/59/16 29/60/17 30/61/17 
f 30/61/17 28/62/16 27/59/16 
f 29/60/17 31/63/18 32/64/18 
f 32/64/18 30/61/17 29/60/17 
f 31/65/18 33/66/19 34/67/20 
f 34/67/20 32/68/18 31/65/18 
f 33/66/19 35/69/21 36/70/21 
f 36/70/21 34/67/20 33/66/19 
f 35/71/21 21/49/13 24/52/13 
f 24/52/13 36/72/21 35/71/21 
# 16 faces

#
# object Box002
#

v  2.2500 12.6000 -9.3500
v  2.2500 12.6000 -9.8500
v  2.7500 12.6000 -9.8500
v  2.7500 12.6000 -9.3500
v  2.2500 13.1000 -9.3500
v  2.7500 13.1000 -9.3500
v  2.7500 13.1000 -9.8500
v  2.2500 13.1000 -9.8500
# 8 vertices

vn 0.0000 -1.0000 -0.0000
vn 0.0000 1.0000 -0.0000
vn 0.0000 0.0000 1.0000
vn 1.0000 0.0000 -0.0000
vn 0.0000 0.0000 -1.0000
vn -1.0000 0.0000 -0.0000
# 6 vertex normals

vt 0.8966 0.4103 0.0000
vt 0.8966 0.4022 0.0000
vt 0.9047 0.4022 0.0000
vt 0.9047 0.4103 0.0000
vt 0.9241 0.2312 0.0000
vt 0.9322 0.2312 0.0000
vt 0.9322 0.2392 0.0000
vt 0.9241 0.2392 0.0000
vt 0.4721 0.7064 0.0000
vt 0.4801 0.7064 0.0000
vt 0.4801 0.7144 0.0000
vt 0.4721 0.7144 0.0000
vt 0.7636 0.5353 0.0000
vt 0.7716 0.5353 0.0000
vt 0.7716 0.5434 0.0000
vt 0.7636 0.5434 0.0000
vt 0.4721 0.5224 0.0000
vt 0.4801 0.5224 0.0000
vt 0.4801 0.5304 0.0000
vt 0.4721 0.5304 0.0000
vt 0.0200 0.9720 0.0000
vt 0.0280 0.9720 0.0000
vt 0.0280 0.9800 0.0000
vt 0.0200 0.9800 0.0000
# 24 texture coords

g Box002
usemtl wire_153228184
s 2
f 37/73/22 38/74/22 39/75/22 
f 39/75/22 40/76/22 37/73/22 
s 4
f 41/77/23 42/78/23 43/79/23 
f 43/79/23 44/80/23 41/77/23 
s 8
f 37/81/24 40/82/24 42/83/24 
f 42/83/24 41/84/24 37/81/24 
s 16
f 40/85/25 39/86/25 43/87/25 
f 43/87/25 42/88/25 40/85/25 
s 32
f 39/89/26 38/90/26 44/91/26 
f 44/91/26 43/92/26 39/89/26 
s 64
f 38/93/27 37/94/27 41/95/27 
f 41/95/27 44/96/27 38/93/27 
# 12 faces

#
# object Cylinder002
#

v  2.6500 12.7500 -9.6000
v  2.6061 12.8497 -9.5637
v  2.6061 9.4295 -0.1668
v  2.6500 9.3298 -0.2031
v  2.5000 12.8910 -9.5487
v  2.5000 9.4708 -0.1518
v  2.3939 12.8497 -9.5637
v  2.3939 9.4295 -0.1668
v  2.3500 12.7500 -9.6000
v  2.3500 9.3298 -0.2031
v  2.3939 12.6503 -9.6363
v  2.3939 9.2301 -0.2394
v  2.5000 12.6090 -9.6513
v  2.5000 9.1888 -0.2544
v  2.6061 12.6503 -9.6363
v  2.6061 9.2301 -0.2394
# 16 vertices

vn 1.0000 0.0000 0.0000
vn 0.7071 0.6645 0.2418
vn -0.0000 0.9397 0.3420
vn 0.0000 0.9397 0.3420
vn -0.7071 0.6645 0.2418
vn -1.0000 -0.0000 -0.0000
vn -0.7071 -0.6645 -0.2418
vn -0.0000 -0.9397 -0.3420
vn 0.0000 -0.9397 -0.3420
vn 0.7071 -0.6645 -0.2418
# 10 vertex normals

vt 0.6409 0.8586 0.0000
vt 0.6409 0.8569 0.0000
vt 0.8015 0.8569 0.0000
vt 0.8015 0.8586 0.0000
vt 0.4297 0.9166 0.0000
vt 0.4297 0.9149 0.0000
vt 0.5903 0.9149 0.0000
vt 0.5903 0.9166 0.0000
vt 0.4297 0.9132 0.0000
vt 0.5903 0.9132 0.0000
vt 0.6409 0.8040 0.0000
vt 0.6409 0.8023 0.0000
vt 0.8015 0.8023 0.0000
vt 0.8015 0.8040 0.0000
vt 0.6409 0.8006 0.0000
vt 0.8015 0.8006 0.0000
vt 0.6409 0.9143 0.0000
vt 0.6409 0.9126 0.0000
vt 0.8015 0.9126 0.0000
vt 0.8015 0.9143 0.0000
vt 0.6409 0.9109 0.0000
vt 0.8015 0.9109 0.0000
vt 0.6409 0.8603 0.0000
vt 0.8015 0.8603 0.0000
# 24 texture coords

g Cylinder002
usemtl wire_028089177
s 8
f 45/97/28 46/98/29 47/99/29 
f 47/99/29 48/100/28 45/97/28 
f 46/101/29 49/102/30 50/103/31 
f 50/103/31 47/104/29 46/101/29 
f 49/102/30 51/105/32 52/106/32 
f 52/106/32 50/103/31 49/102/30 
f 51/107/32 53/108/33 54/109/33 
f 54/109/33 52/110/32 51/107/32 
f 53/108/33 55/111/34 56/112/34 
f 56/112/34 54/109/33 53/108/33 
f 55/113/34 57/114/35 58/115/36 
f 58/115/36 56/116/34 55/113/34 
f 57/114/35 59/117/37 60/118/37 
f 60/118/37 58/115/36 57/114/35 
f 59/119/37 45/97/28 48/100/28 
f 48/100/28 60/120/37 59/119/37 
# 16 faces

#
# object Cylinder003
#

v  2.7165 10.1250 2.0000
v  2.5963 10.1868 1.8646
v  -2.0000 18.1478 9.5780
v  -1.8798 18.0860 9.7135
v  2.4197 10.1392 1.8085
v  -2.1766 18.1001 9.5219
v  2.2901 10.0100 1.8646
v  -2.3062 17.9710 9.5780
v  2.2835 9.8750 2.0000
v  -2.3128 17.8360 9.7135
v  2.4037 9.8132 2.1354
v  -2.1925 17.7742 9.8489
v  2.5803 9.8608 2.1915
v  -2.0159 17.8218 9.9050
v  2.7099 9.9900 2.1354
v  -1.8864 17.9509 9.8489
# 16 vertices

vn 0.8660 0.5000 -0.0000
vn 0.3851 0.7472 -0.5417
vn -0.3214 0.5567 -0.7660
vn -0.8396 0.0401 -0.5417
vn -0.8660 -0.5000 0.0000
vn -0.3851 -0.7472 0.5417
vn 0.3214 -0.5567 0.7660
vn 0.8396 -0.0401 0.5417
vn -0.3830 0.6634 0.6428
# 9 vertex normals

vt 0.6052 0.6324 0.0000
vt 0.6052 0.6296 0.0000
vt 0.7979 0.6296 0.0000
vt 0.7979 0.6324 0.0000
vt 0.6052 0.5790 0.0000
vt 0.6052 0.5761 0.0000
vt 0.7979 0.5761 0.0000
vt 0.7979 0.5790 0.0000
vt 0.6052 0.5733 0.0000
vt 0.7979 0.5733 0.0000
vt 0.7129 0.1566 0.0000
vt 0.7129 0.1537 0.0000
vt 0.9056 0.1537 0.0000
vt 0.9056 0.1566 0.0000
vt 0.7129 0.1509 0.0000
vt 0.9056 0.1509 0.0000
vt 0.4297 0.7500 0.0000
vt 0.4297 0.7472 0.0000
vt 0.6224 0.7472 0.0000
vt 0.6224 0.7500 0.0000
vt 0.4297 0.7443 0.0000
vt 0.6224 0.7443 0.0000
vt 0.6052 0.6353 0.0000
vt 0.7979 0.6353 0.0000
vt 0.1404 0.8719 0.0000
vt 0.1382 0.8697 0.0000
vt 0.1383 0.8666 0.0000
vt 0.1405 0.8645 0.0000
vt 0.1435 0.8645 0.0000
vt 0.1457 0.8667 0.0000
vt 0.1457 0.8698 0.0000
vt 0.1435 0.8719 0.0000
# 32 texture coords

g Cylinder003
usemtl wire_225143087
s 8
f 61/121/38 62/122/39 63/123/39 
f 63/123/39 64/124/38 61/121/38 
f 62/125/39 65/126/40 66/127/40 
f 66/127/40 63/128/39 62/125/39 
f 65/126/40 67/129/41 68/130/41 
f 68/130/41 66/127/40 65/126/40 
f 67/131/41 69/132/42 70/133/42 
f 70/133/42 68/134/41 67/131/41 
f 69/132/42 71/135/43 72/136/43 
f 72/136/43 70/133/42 69/132/42 
f 71/137/43 73/138/44 74/139/44 
f 74/139/44 72/140/43 71/137/43 
f 73/138/44 75/141/45 76/142/45 
f 76/142/45 74/139/44 73/138/44 
f 75/143/45 61/121/38 64/124/38 
f 64/124/38 76/144/45 75/143/45 
s 1
f 63/145/46 66/146/46 68/147/46 
f 68/147/46 70/148/46 72/149/46 
f 72/149/46 74/150/46 76/151/46 
f 68/147/46 72/149/46 76/151/46 
f 63/145/46 68/147/46 76/151/46 
f 64/152/46 63/145/46 76/151/46 
# 22 faces

