# 3ds Max Wavefront OBJ Exporter v0.97b - (c)2007 guruware
# File Created: 20.08.2014 21:54:57

mtllib pyramid.mtl

#
# object Pyramid001
#

v  0.0000 1.0000 -0.0000
v  -1.0000 0.0000 1.0000
v  1.0000 0.0000 1.0000
v  1.0000 0.0000 -1.0000
v  -1.0000 0.0000 -1.0000
# 5 vertices

vn 0.0000 0.7071 0.7071
vn 0.7071 0.7071 -0.0000
vn 0.0000 0.7071 -0.7071
vn -0.7071 0.7071 -0.0000
# 4 vertex normals

vt 0.7513 0.9961 0.0000
vt 0.5082 0.5134 0.0000
vt 0.9944 0.5134 0.0000
vt 0.2487 0.4904 0.0000
vt 0.0056 0.0076 0.0000
vt 0.4918 0.0076 0.0000
vt 0.2487 0.9961 0.0000
vt 0.0056 0.5134 0.0000
vt 0.4918 0.5134 0.0000
vt 0.7513 0.4904 0.0000
vt 0.5082 0.0076 0.0000
vt 0.9944 0.0076 0.0000
# 12 texture coords

g Pyramid001
usemtl wire_141007058
s 4
f 1/1/1 2/2/1 3/3/1 
s 2
f 1/4/2 3/5/2 4/6/2 
s 16
f 1/7/3 4/8/3 5/9/3 
s 32
f 1/10/4 5/11/4 2/12/4 
# 4 faces

