# 3ds Max Wavefront OBJ Exporter v0.97b - (c)2007 guruware
# File Created: 11.07.2014 12:16:18

mtllib terra.mtl

#
# object Box001
#

v  -12.5000 2.0000 2.5000
v  -12.5000 2.0000 -2.5000
v  -6.0000 2.0000 -2.5000
v  -6.0000 2.0000 2.5000
v  -6.0000 5.0000 2.5000
v  -6.0000 5.0000 -2.5000
v  -5.0000 5.0000 -2.5000
v  -5.0000 5.0000 2.5000
v  -5.0000 3.0000 2.5000
v  -5.0000 3.0000 -2.5000
v  0.0000 3.0000 -2.5000
v  0.0000 3.0000 2.5000
v  0.0000 5.0000 2.5000
v  0.0000 5.0000 -2.5000
v  2.0000 5.0000 -2.5000
v  2.0000 5.0000 2.5000
v  2.0000 3.0000 2.5000
v  2.0000 3.0000 -2.5000
v  5.0000 3.0000 -2.5000
v  5.0000 3.0000 2.5000
v  5.0000 5.0000 2.5000
v  5.0000 5.0000 -2.5000
v  6.0000 5.0000 -2.5000
v  6.0000 5.0000 2.5000
v  6.0000 2.5000 2.5000
v  6.0000 2.5000 -2.5000
v  12.5000 2.5000 -2.5000
v  12.5000 2.5000 2.5000
v  12.5000 5.0000 2.5000
v  12.5000 5.0000 -2.5000
v  12.5000 15.0000 -2.5000
v  12.5000 15.0000 2.5000
v  -12.5000 5.0000 -2.5000
v  -12.5000 5.0000 2.5000
v  -12.5000 15.0000 2.5000
v  -12.5000 15.0000 -2.5000
v  0.0000 15.0000 2.5000
v  0.0000 15.0000 -2.5000
v  0.0000 18.0000 -2.5000
v  0.0000 18.0000 2.5000
v  -12.5000 18.0000 2.5000
v  -12.5000 18.0000 -2.5000
v  -5.0000 18.0000 2.5000
v  -6.0000 18.0000 2.5000
v  -5.0000 18.0000 -2.5000
v  -6.0000 18.0000 -2.5000
v  6.0000 15.0000 2.5000
v  5.0000 15.0000 2.5000
v  2.0000 15.0000 2.5000
v  6.0000 15.0000 -2.5000
v  5.0000 15.0000 -2.5000
v  2.0000 15.0000 -2.5000
# 52 vertices

vn 0.0000 -1.0000 -0.0000
vn 1.0000 0.0000 -0.0000
vn -1.0000 0.0000 -0.0000
vn 0.0000 0.0000 -1.0000
vn 0.0000 0.0000 1.0000
vn 0.0000 1.0000 -0.0000
# 6 vertex normals

vt 0.6135 0.4854 0.0000
vt 0.6135 0.5727 0.0000
vt 0.5000 0.5727 0.0000
vt 0.5000 0.4854 0.0000
vt 0.8200 0.8897 0.0000
vt 0.7327 0.8897 0.0000
vt 0.7327 0.8722 0.0000
vt 0.8200 0.8722 0.0000
vt 0.5000 0.8810 0.0000
vt 0.5000 0.7937 0.0000
vt 0.5873 0.7937 0.0000
vt 0.5873 0.8810 0.0000
vt 0.8752 0.5203 0.0000
vt 0.7880 0.5203 0.0000
vt 0.7880 0.4854 0.0000
vt 0.8752 0.4854 0.0000
vt 0.9510 0.2178 0.0000
vt 0.8637 0.2178 0.0000
vt 0.8637 0.1654 0.0000
vt 0.9510 0.1654 0.0000
vt 0.9509 0.8112 0.0000
vt 0.8636 0.8112 0.0000
vt 0.8636 0.7937 0.0000
vt 0.9509 0.7937 0.0000
vt 0.8898 0.3400 0.0000
vt 0.8898 0.4273 0.0000
vt 0.7764 0.4273 0.0000
vt 0.7764 0.3400 0.0000
vt 0.5437 0.4273 0.0000
vt 0.5437 0.3400 0.0000
vt 0.7183 0.3400 0.0000
vt 0.7183 0.4273 0.0000
vt 0.6542 0.1073 0.0000
vt 0.6542 0.0200 0.0000
vt 0.8288 0.0200 0.0000
vt 0.8288 0.1073 0.0000
vt 0.8491 0.7153 0.0000
vt 0.7618 0.7153 0.0000
vt 0.7618 0.6629 0.0000
vt 0.8491 0.6629 0.0000
vt 0.8812 0.0200 0.0000
vt 0.8812 0.1073 0.0000
vt 0.6019 0.1073 0.0000
vt 0.6019 0.0200 0.0000
vt 0.0200 0.5669 0.0000
vt 0.1335 0.5669 0.0000
vt 0.1335 0.6193 0.0000
vt 0.0200 0.6193 0.0000
vt 0.6571 0.4854 0.0000
vt 0.7444 0.4854 0.0000
vt 0.7444 0.5377 0.0000
vt 0.6571 0.5377 0.0000
vt 0.3430 0.8898 0.0000
vt 0.4565 0.8898 0.0000
vt 0.4565 0.9422 0.0000
vt 0.3430 0.9422 0.0000
vt 0.6571 0.5813 0.0000
vt 0.7444 0.5813 0.0000
vt 0.7444 0.6162 0.0000
vt 0.6571 0.6162 0.0000
vt 0.1509 0.5669 0.0000
vt 0.2382 0.5669 0.0000
vt 0.2382 0.6019 0.0000
vt 0.1509 0.6019 0.0000
vt 0.8927 0.6629 0.0000
vt 0.9800 0.6629 0.0000
vt 0.9800 0.6978 0.0000
vt 0.8927 0.6978 0.0000
vt 0.2382 0.8898 0.0000
vt 0.3255 0.8898 0.0000
vt 0.3255 0.9248 0.0000
vt 0.2382 0.9248 0.0000
vt 0.7327 0.7937 0.0000
vt 0.8200 0.7937 0.0000
vt 0.8200 0.8287 0.0000
vt 0.7327 0.8287 0.0000
vt 0.2732 0.5669 0.0000
vt 0.3255 0.5669 0.0000
vt 0.3255 0.6019 0.0000
vt 0.2732 0.6019 0.0000
vt 0.6019 0.8810 0.0000
vt 0.6891 0.8810 0.0000
vt 0.6891 0.9159 0.0000
vt 0.6019 0.9159 0.0000
vt 0.1509 0.8898 0.0000
vt 0.2033 0.8898 0.0000
vt 0.2033 0.9248 0.0000
vt 0.1509 0.9248 0.0000
vt 0.6019 0.7937 0.0000
vt 0.6891 0.7937 0.0000
vt 0.6891 0.8374 0.0000
vt 0.6019 0.8374 0.0000
vt 0.3430 0.5669 0.0000
vt 0.4565 0.5669 0.0000
vt 0.4565 0.6106 0.0000
vt 0.3430 0.6106 0.0000
vt 0.5000 0.4273 0.0000
vt 0.5000 0.3400 0.0000
vt 0.0200 0.8898 0.0000
vt 0.1335 0.8898 0.0000
vt 0.1335 0.9335 0.0000
vt 0.0200 0.9335 0.0000
vt 0.5873 0.7502 0.0000
vt 0.5000 0.7502 0.0000
vt 0.5000 0.6629 0.0000
vt 0.6048 0.7502 0.0000
vt 0.5873 0.6629 0.0000
vt 0.6048 0.6629 0.0000
vt 0.7183 0.6629 0.0000
vt 0.7183 0.7502 0.0000
vt 0.7153 0.2527 0.0000
vt 0.6019 0.2527 0.0000
vt 0.6019 0.1654 0.0000
vt 0.7328 0.2527 0.0000
vt 0.7852 0.2527 0.0000
vt 0.8201 0.2527 0.0000
vt 0.7153 0.1654 0.0000
vt 0.7328 0.1654 0.0000
vt 0.7852 0.1654 0.0000
vt 0.8201 0.1654 0.0000
vt 0.0200 0.3924 0.0000
vt 0.0200 0.3400 0.0000
vt 0.1335 0.3400 0.0000
vt 0.1509 0.3400 0.0000
vt 0.2382 0.3400 0.0000
vt 0.2382 0.3924 0.0000
vt 0.3430 0.3924 0.0000
vt 0.4565 0.3924 0.0000
vt 0.3255 0.3924 0.0000
vt 0.2732 0.3924 0.0000
vt 0.0200 0.7153 0.0000
vt 0.1335 0.7153 0.0000
vt 0.1509 0.7153 0.0000
vt 0.2033 0.7153 0.0000
vt 0.2382 0.7153 0.0000
vt 0.2382 0.6629 0.0000
vt 0.3255 0.6629 0.0000
vt 0.3430 0.6629 0.0000
vt 0.4565 0.6629 0.0000
vt 0.4565 0.7153 0.0000
# 140 texture coords

g Box001
usemtl wire_229166215
s 2
f 1/1/1 2/2/1 3/3/1 
f 3/3/1 4/4/1 1/1/1 
f 5/5/1 6/6/1 7/7/1 
f 7/7/1 8/8/1 5/5/1 
f 9/9/1 10/10/1 11/11/1 
f 11/11/1 12/12/1 9/9/1 
f 13/13/1 14/14/1 15/15/1 
f 15/15/1 16/16/1 13/13/1 
f 17/17/1 18/18/1 19/19/1 
f 19/19/1 20/20/1 17/17/1 
f 21/21/1 22/22/1 23/23/1 
f 23/23/1 24/24/1 21/21/1 
f 25/25/1 26/26/1 27/27/1 
f 27/27/1 28/28/1 25/25/1 
s 16
f 29/29/2 30/30/2 31/31/2 
f 31/31/2 32/32/2 29/29/2 
s 64
f 33/33/3 34/34/3 35/35/3 
f 35/35/3 36/36/3 33/33/3 
s off
f 37/37/2 38/38/2 39/39/2 
f 39/39/2 40/40/2 37/37/2 
f 36/36/3 35/35/3 41/41/3 
f 41/41/3 42/42/3 36/36/3 
f 34/34/3 33/33/3 2/43/3 
f 2/43/3 1/44/3 34/34/3 
f 33/45/4 6/46/4 3/47/4 
f 3/47/4 2/48/4 33/45/4 
f 6/49/2 5/50/2 4/51/2 
f 4/51/2 3/52/2 6/49/2 
f 5/53/5 34/54/5 1/55/5 
f 1/55/5 4/56/5 5/53/5 
f 8/57/3 7/58/3 10/59/3 
f 10/59/3 9/60/3 8/57/3 
f 7/61/4 14/62/4 11/63/4 
f 11/63/4 10/64/4 7/61/4 
f 14/65/2 13/66/2 12/67/2 
f 12/67/2 11/68/2 14/65/2 
f 13/69/5 8/70/5 9/71/5 
f 9/71/5 12/72/5 13/69/5 
f 16/73/3 15/74/3 18/75/3 
f 18/75/3 17/76/3 16/73/3 
f 15/77/4 22/78/4 19/79/4 
f 19/79/4 18/80/4 15/77/4 
f 22/81/2 21/82/2 20/83/2 
f 20/83/2 19/84/2 22/81/2 
f 21/85/5 16/86/5 17/87/5 
f 17/87/5 20/88/5 21/85/5 
f 24/89/3 23/90/3 26/91/3 
f 26/91/3 25/92/3 24/89/3 
f 23/93/4 30/94/4 27/95/4 
f 27/95/4 26/96/4 23/93/4 
f 30/30/2 29/29/2 28/97/2 
f 28/97/2 27/98/2 30/30/2 
f 29/99/5 24/100/5 25/101/5 
f 25/101/5 28/102/5 29/99/5 
f 43/103/6 40/104/6 39/105/6 
f 44/106/6 43/103/6 39/105/6 
f 44/106/6 39/105/6 45/107/6 
f 44/106/6 45/107/6 46/108/6 
f 44/106/6 46/108/6 42/109/6 
f 44/106/6 42/109/6 41/110/6 
f 47/111/6 32/112/6 31/113/6 
f 48/114/6 47/111/6 31/113/6 
f 49/115/6 48/114/6 31/113/6 
f 37/116/6 49/115/6 31/113/6 
f 37/116/6 31/113/6 50/117/6 
f 37/116/6 50/117/6 51/118/6 
f 37/116/6 51/118/6 52/119/6 
f 37/116/6 52/119/6 38/120/6 
f 36/121/4 42/122/4 46/123/4 
f 36/121/4 46/123/4 45/124/4 
f 45/124/4 39/125/4 38/126/4 
f 36/121/4 45/124/4 38/126/4 
f 50/127/4 31/128/4 30/94/4 
f 51/129/4 50/127/4 30/94/4 
f 52/130/4 51/129/4 30/94/4 
f 38/126/4 52/130/4 30/94/4 
f 36/121/4 38/126/4 30/94/4 
f 36/121/4 30/94/4 23/93/4 
f 36/121/4 23/93/4 22/78/4 
f 36/121/4 22/78/4 15/77/4 
f 36/121/4 15/77/4 14/62/4 
f 36/121/4 14/62/4 7/61/4 
f 36/121/4 7/61/4 6/46/4 
f 33/45/4 36/121/4 6/46/4 
f 24/100/5 29/99/5 32/131/5 
f 21/85/5 24/100/5 32/131/5 
f 16/86/5 21/85/5 32/131/5 
f 13/69/5 16/86/5 32/131/5 
f 8/70/5 13/69/5 32/131/5 
f 8/70/5 32/131/5 47/132/5 
f 8/70/5 47/132/5 48/133/5 
f 8/70/5 48/133/5 49/134/5 
f 8/70/5 49/134/5 37/135/5 
f 37/135/5 40/136/5 43/137/5 
f 37/135/5 43/137/5 44/138/5 
f 8/70/5 37/135/5 44/138/5 
f 44/138/5 41/139/5 35/140/5 
f 8/70/5 44/138/5 35/140/5 
f 5/53/5 8/70/5 35/140/5 
f 5/53/5 35/140/5 34/54/5 
# 100 faces

#
# object Plane001
#

v  -7.5000 10.0000 -40.0000
v  -7.5000 10.0000 -10.0000
v  7.5000 10.0000 -40.0000
v  7.5000 10.0000 -10.0000
# 4 vertices

vn 0.0000 1.0000 -0.0000
# 1 vertex normals

vt 0.5438 0.2819 0.0000
vt 0.0200 0.2819 0.0000
vt 0.5438 0.0200 0.0000
vt 0.0200 0.0200 0.0000
# 4 texture coords

g Plane001
usemtl wire_229166215
s 1
f 53/141/7 54/142/7 55/143/7 
f 56/144/7 55/143/7 54/142/7 
# 2 faces

#
# object Plane002
#

v  -0.2500 10.0000 -10.0000
v  -0.2500 10.0000 -0.0000
v  0.2500 10.0000 -10.0000
v  0.2500 10.0000 -0.0000
# 4 vertices

vn 0.0000 1.0000 -0.0000
# 1 vertex normals

vt 0.9625 0.5871 0.0000
vt 0.7880 0.5871 0.0000
vt 0.9625 0.5784 0.0000
vt 0.7880 0.5784 0.0000
# 4 texture coords

g Plane002
usemtl wire_177027088
s 1
f 57/145/8 58/146/8 59/147/8 
f 60/148/8 59/147/8 58/146/8 
# 2 faces

